G04*
G04 #@! TF.GenerationSoftware,Altium Limited,Altium Designer,19.0.15 (446)*
G04*
G04 Layer_Color=16711935*
%FSLAX44Y44*%
%MOMM*%
G71*
G01*
G75*
G04:AMPARAMS|DCode=20|XSize=1.6032mm|YSize=1.4032mm|CornerRadius=0mm|HoleSize=0mm|Usage=FLASHONLY|Rotation=135.000|XOffset=0mm|YOffset=0mm|HoleType=Round|Shape=Rectangle|*
%AMROTATEDRECTD20*
4,1,4,1.0629,-0.0707,0.0707,-1.0629,-1.0629,0.0707,-0.0707,1.0629,1.0629,-0.0707,0.0*
%
%ADD20ROTATEDRECTD20*%

G04:AMPARAMS|DCode=22|XSize=1.6032mm|YSize=1.4032mm|CornerRadius=0mm|HoleSize=0mm|Usage=FLASHONLY|Rotation=225.000|XOffset=0mm|YOffset=0mm|HoleType=Round|Shape=Rectangle|*
%AMROTATEDRECTD22*
4,1,4,0.0707,1.0629,1.0629,0.0707,-0.0707,-1.0629,-1.0629,-0.0707,0.0707,1.0629,0.0*
%
%ADD22ROTATEDRECTD22*%

%ADD23C,1.7032*%
%ADD24R,1.7032X1.7032*%
%ADD25R,1.7032X1.7032*%
%ADD26P,2.4087X4X360.0*%
%ADD27P,2.4087X4X270.0*%
%ADD28C,0.8032*%
G04:AMPARAMS|DCode=59|XSize=1.9032mm|YSize=1.3032mm|CornerRadius=0mm|HoleSize=0mm|Usage=FLASHONLY|Rotation=45.000|XOffset=0mm|YOffset=0mm|HoleType=Round|Shape=Rectangle|*
%AMROTATEDRECTD59*
4,1,4,-0.2121,-1.1336,-1.1336,-0.2121,0.2121,1.1336,1.1336,0.2121,-0.2121,-1.1336,0.0*
%
%ADD59ROTATEDRECTD59*%

G04:AMPARAMS|DCode=60|XSize=2.2032mm|YSize=5.8032mm|CornerRadius=0mm|HoleSize=0mm|Usage=FLASHONLY|Rotation=45.000|XOffset=0mm|YOffset=0mm|HoleType=Round|Shape=Rectangle|*
%AMROTATEDRECTD60*
4,1,4,1.2728,-2.8307,-2.8307,1.2728,-1.2728,2.8307,2.8307,-1.2728,1.2728,-2.8307,0.0*
%
%ADD60ROTATEDRECTD60*%

%ADD61R,1.2032X2.6032*%
%ADD62R,3.5032X2.6032*%
%ADD63R,1.3032X1.9032*%
%ADD64R,1.4032X1.6032*%
%ADD65R,1.3532X0.8032*%
G04:AMPARAMS|DCode=66|XSize=0.8032mm|YSize=1.8032mm|CornerRadius=0mm|HoleSize=0mm|Usage=FLASHONLY|Rotation=315.000|XOffset=0mm|YOffset=0mm|HoleType=Round|Shape=Round|*
%AMOVALD66*
21,1,1.0000,0.8032,0.0000,0.0000,45.0*
1,1,0.8032,-0.3536,-0.3536*
1,1,0.8032,0.3536,0.3536*
%
%ADD66OVALD66*%

%ADD67R,2.2032X2.7032*%
%ADD68R,0.7032X2.5032*%
G36*
X156231Y485701D02*
Y460714D01*
X63781D01*
Y485701D01*
X156231D01*
D02*
G37*
G36*
X937622Y463214D02*
X843687D01*
Y487288D01*
X937622D01*
Y463214D01*
D02*
G37*
%LPC*%
G36*
X69694Y480588D02*
X69123D01*
X68866Y480560D01*
X68637Y480531D01*
X68580D01*
X68466Y480502D01*
X68295Y480474D01*
X68152Y480445D01*
X68123D01*
X68038Y480417D01*
X67952Y480360D01*
X67867Y480274D01*
X67838D01*
X67809Y480217D01*
X67781Y480160D01*
Y480588D01*
D01*
D01*
Y464914D01*
D01*
Y465343D01*
X67809Y465257D01*
X67867Y465171D01*
X67895D01*
X67924Y465114D01*
X68009Y465086D01*
X68152Y465028D01*
X68181D01*
X68266Y465000D01*
X68438D01*
X68637Y464971D01*
X68695D01*
X68837Y464943D01*
X69066Y464914D01*
X69637D01*
X69893Y464943D01*
X70150Y464971D01*
X70208D01*
X70322Y465000D01*
X70465D01*
X70636Y465028D01*
X70664D01*
X70722Y465057D01*
X70807Y465114D01*
X70893Y465171D01*
Y465200D01*
X70921Y465257D01*
X70950Y465400D01*
Y480131D01*
X70893Y480274D01*
X70864Y480303D01*
X70836Y480331D01*
X70750Y480388D01*
X70636Y480445D01*
X70607D01*
X70493Y480474D01*
X70350Y480502D01*
X70150Y480531D01*
X70093D01*
X69922Y480560D01*
X69694Y480588D01*
D02*
G37*
G36*
X125594Y481702D02*
X125023D01*
X124794Y481673D01*
X124566Y481644D01*
X124509D01*
X124395Y481616D01*
X124252Y481587D01*
X124109Y481530D01*
X124081D01*
X124024Y481502D01*
X123938Y481445D01*
X123852Y481387D01*
X123824Y481359D01*
X123795Y481330D01*
X123767Y481245D01*
Y481159D01*
Y475249D01*
X123738Y475278D01*
X123709Y475306D01*
X123510Y475478D01*
X123253Y475706D01*
X122967Y475934D01*
X122939Y475963D01*
X122910Y475992D01*
X122710Y476106D01*
X122453Y476277D01*
X122168Y476420D01*
X122139D01*
X122082Y476448D01*
X121997Y476477D01*
X121911Y476534D01*
X121625Y476620D01*
X121311Y476705D01*
X121283D01*
X121226Y476734D01*
X121140D01*
X121026Y476762D01*
X120740Y476791D01*
X120198D01*
X119970Y476762D01*
X119713Y476734D01*
X119398Y476677D01*
X119056Y476591D01*
X118713Y476477D01*
X118399Y476306D01*
X118371Y476277D01*
X118257Y476220D01*
X118114Y476106D01*
X117914Y475963D01*
X117714Y475792D01*
X117486Y475563D01*
X117257Y475306D01*
X117058Y475021D01*
X117029Y474992D01*
X116972Y474878D01*
X116886Y474707D01*
X116743Y474478D01*
X116629Y474221D01*
X116515Y473879D01*
X116372Y473536D01*
X116287Y473137D01*
Y473079D01*
X116258Y472965D01*
X116201Y472737D01*
X116144Y472452D01*
X116115Y472109D01*
X116058Y471738D01*
X116030Y471310D01*
Y481702D01*
Y468797D01*
D01*
Y470653D01*
X116058Y470367D01*
Y470025D01*
X116115Y469625D01*
X116172Y469197D01*
X116229Y468740D01*
X116344Y468312D01*
Y468255D01*
X116401Y468112D01*
X116487Y467912D01*
X116572Y467655D01*
X116715Y467341D01*
X116858Y466998D01*
X117058Y466684D01*
X117257Y466370D01*
X117286Y466342D01*
X117372Y466228D01*
X117486Y466085D01*
X117657Y465914D01*
X117857Y465714D01*
X118085Y465514D01*
X118371Y465314D01*
X118685Y465143D01*
X118713Y465114D01*
X118827Y465086D01*
X119027Y465000D01*
X119256Y464943D01*
X119541Y464857D01*
X119884Y464772D01*
X120255Y464743D01*
X120655Y464715D01*
X116030D01*
Y468055D01*
Y464715D01*
X126793D01*
X120855D01*
X120969Y464743D01*
X121283Y464772D01*
X121654Y464829D01*
X121683D01*
X121740Y464857D01*
X121825Y464886D01*
X121939Y464914D01*
X122225Y465000D01*
X122539Y465143D01*
X122568D01*
X122625Y465171D01*
X122710Y465228D01*
X122796Y465314D01*
X123081Y465485D01*
X123396Y465714D01*
X123424Y465742D01*
X123453Y465771D01*
X123538Y465857D01*
X123652Y465942D01*
X123909Y466199D01*
X124223Y466542D01*
Y465371D01*
Y465343D01*
Y465314D01*
X124252Y465228D01*
X124309Y465143D01*
X124366Y465086D01*
X124423Y465057D01*
X124509Y465000D01*
X124537D01*
X124623Y464972D01*
X124737D01*
X124909Y464943D01*
X125080D01*
X125280Y464914D01*
X125965D01*
X126165Y464943D01*
X126193D01*
X126307Y464972D01*
X126422D01*
X126536Y465000D01*
X126565D01*
X126622Y465029D01*
X126679Y465086D01*
X126736Y465143D01*
Y465171D01*
X126764Y465228D01*
X126793Y465371D01*
Y481245D01*
X126736Y481387D01*
X126707Y481416D01*
X126679Y481445D01*
X126593Y481473D01*
X126479Y481530D01*
X126450Y481559D01*
X126365Y481587D01*
X126222Y481616D01*
X126022Y481644D01*
X125965D01*
X125822Y481673D01*
X125594Y481702D01*
D02*
G37*
G36*
X152231Y480788D02*
X142095D01*
X146435D01*
X146092Y480759D01*
X145693Y480702D01*
X145664D01*
X145607Y480674D01*
X145493D01*
X145350Y480645D01*
X145007Y480560D01*
X144665Y480474D01*
X144636D01*
X144579Y480445D01*
X144494Y480417D01*
X144379Y480388D01*
X144094Y480274D01*
X143808Y480131D01*
X143780D01*
X143751Y480103D01*
X143609Y480046D01*
X143437Y479931D01*
X143323Y479846D01*
X143295Y479817D01*
X143237Y479789D01*
X143180Y479703D01*
X143152Y479646D01*
Y479617D01*
X143123Y479589D01*
X143066Y479418D01*
Y479389D01*
X143038Y479332D01*
Y479189D01*
Y479046D01*
Y479018D01*
X143009Y478904D01*
Y478732D01*
Y478532D01*
Y478504D01*
Y478475D01*
Y478333D01*
Y478133D01*
X143038Y477933D01*
Y477904D01*
X143066Y477790D01*
X143095Y477676D01*
X143123Y477562D01*
Y477533D01*
X143152Y477476D01*
X143237Y477333D01*
X143295Y477305D01*
X143352Y477276D01*
X143466D01*
X143523Y477305D01*
X143666Y477333D01*
X143865Y477419D01*
X143923Y477448D01*
X144065Y477533D01*
X144294Y477648D01*
X144579Y477790D01*
X144608D01*
X144636Y477819D01*
X144722Y477876D01*
X144836Y477904D01*
X145150Y478019D01*
X145550Y478161D01*
X145578D01*
X145636Y478190D01*
X145750Y478218D01*
X145893Y478247D01*
X146092Y478276D01*
X146292Y478304D01*
X146749Y478333D01*
X146920D01*
X147063Y478304D01*
X147349Y478276D01*
X147663Y478190D01*
X147691D01*
X147720Y478161D01*
X147891Y478104D01*
X148091Y477990D01*
X148291Y477847D01*
X148319Y477819D01*
X148434Y477705D01*
X148548Y477533D01*
X148662Y477305D01*
X148690Y477248D01*
X148719Y477105D01*
X148748Y476905D01*
X148776Y476648D01*
Y476620D01*
Y476563D01*
X148748Y476477D01*
Y476334D01*
X148662Y476049D01*
X148519Y475735D01*
Y475706D01*
X148462Y475678D01*
X148319Y475506D01*
X148062Y475306D01*
X147748Y475078D01*
X147720D01*
X147663Y475021D01*
X147548Y474964D01*
X147434Y474907D01*
X147092Y474735D01*
X146663Y474536D01*
X146635D01*
X146549Y474478D01*
X146435Y474450D01*
X146292Y474364D01*
X145893Y474193D01*
X145464Y473993D01*
X145436D01*
X145350Y473936D01*
X145236Y473879D01*
X145065Y473793D01*
X144693Y473593D01*
X144237Y473336D01*
X144208Y473308D01*
X144122Y473279D01*
X144008Y473194D01*
X143865Y473079D01*
X143523Y472794D01*
X143180Y472452D01*
X143152Y472423D01*
X143095Y472366D01*
X143009Y472252D01*
X142895Y472109D01*
X142781Y471938D01*
X142638Y471738D01*
X142409Y471252D01*
X142381Y471224D01*
X142352Y471138D01*
X142295Y470995D01*
X142238Y470796D01*
X142181Y470567D01*
X142153Y470282D01*
X142095Y469968D01*
D01*
Y469425D01*
X142124Y469197D01*
X142153Y468911D01*
X142210Y468569D01*
X142295Y468198D01*
X142409Y467826D01*
X142552Y467484D01*
X142581Y467455D01*
X142638Y467341D01*
X142752Y467170D01*
X142866Y466941D01*
X143066Y466713D01*
X143266Y466456D01*
X143523Y466199D01*
X143808Y465942D01*
X143837Y465914D01*
X143951Y465828D01*
X144094Y465714D01*
X144322Y465600D01*
X144579Y465428D01*
X144893Y465285D01*
X145265Y465143D01*
X145636Y465000D01*
X145693D01*
X145807Y464943D01*
X146035Y464914D01*
X146292Y464857D01*
X146635Y464800D01*
X147006Y464772D01*
X147434Y464715D01*
X148148D01*
X148348Y464743D01*
X148576D01*
X148833Y464772D01*
X149347Y464857D01*
X149376D01*
X149461Y464886D01*
X149604Y464914D01*
X149747Y464943D01*
X150147Y465057D01*
X150575Y465171D01*
X150603D01*
X150660Y465200D01*
X150746Y465228D01*
X150889Y465285D01*
X151174Y465400D01*
X151460Y465542D01*
X151517Y465571D01*
X151660Y465657D01*
X151831Y465771D01*
X151974Y465914D01*
X152002Y465942D01*
X152059Y466028D01*
X152116Y466171D01*
X152174Y466370D01*
Y466427D01*
X152202Y466570D01*
X152231Y466827D01*
Y464829D01*
Y467883D01*
X152202Y467969D01*
X152174Y468112D01*
X152145Y468226D01*
Y468255D01*
X152116Y468312D01*
X152059Y468397D01*
X152002Y468455D01*
X151974Y468483D01*
X151945Y468512D01*
X151888Y468540D01*
X151774D01*
X151688Y468512D01*
X151517Y468455D01*
X151317Y468312D01*
X151288D01*
X151260Y468283D01*
X151089Y468198D01*
X150860Y468055D01*
X150546Y467883D01*
X150518D01*
X150461Y467855D01*
X150346Y467798D01*
X150232Y467741D01*
X150061Y467684D01*
X149861Y467598D01*
X149404Y467455D01*
X149376D01*
X149290Y467427D01*
X149147Y467398D01*
X148947Y467370D01*
X148719Y467313D01*
X148462Y467284D01*
X147863Y467255D01*
X147634D01*
X147491Y467284D01*
X147149Y467313D01*
X146806Y467370D01*
X146778D01*
X146721Y467398D01*
X146635Y467427D01*
X146549Y467484D01*
X146292Y467598D01*
X146035Y467769D01*
X146007D01*
X145978Y467826D01*
X145864Y467941D01*
X145693Y468140D01*
X145550Y468397D01*
Y468426D01*
X145521Y468455D01*
X145464Y468654D01*
X145407Y468911D01*
X145379Y469225D01*
Y469254D01*
Y469311D01*
X145407Y469397D01*
Y469539D01*
X145521Y469825D01*
X145578Y469968D01*
X145693Y470110D01*
Y470139D01*
X145750Y470168D01*
X145893Y470339D01*
X146121Y470567D01*
X146435Y470796D01*
X146464D01*
X146521Y470853D01*
X146606Y470910D01*
X146749Y470967D01*
X147063Y471138D01*
X147491Y471338D01*
X147520D01*
X147577Y471395D01*
X147691Y471452D01*
X147863Y471509D01*
X148034Y471595D01*
X148234Y471709D01*
X148690Y471909D01*
X148719D01*
X148805Y471966D01*
X148919Y472023D01*
X149090Y472109D01*
X149461Y472309D01*
X149918Y472537D01*
X149947Y472566D01*
X150004Y472594D01*
X150118Y472680D01*
X150261Y472794D01*
X150603Y473079D01*
X150946Y473422D01*
X150974Y473451D01*
X151032Y473508D01*
X151117Y473622D01*
X151203Y473765D01*
X151317Y473936D01*
X151460Y474136D01*
X151688Y474621D01*
Y474650D01*
X151745Y474735D01*
X151774Y474907D01*
X151831Y475107D01*
X151888Y475335D01*
X151917Y475620D01*
X151974Y475963D01*
Y476306D01*
Y476363D01*
Y476506D01*
X151945Y476705D01*
X151917Y476962D01*
X151888Y477276D01*
X151802Y477590D01*
X151717Y477933D01*
X151574Y478247D01*
X151545Y478276D01*
X151488Y478390D01*
X151403Y478561D01*
X151288Y478732D01*
X151117Y478961D01*
X150946Y479189D01*
X150717Y479418D01*
X150461Y479646D01*
X150432Y479674D01*
X150346Y479732D01*
X150175Y479846D01*
X149975Y479960D01*
X149747Y480103D01*
X149461Y480246D01*
X149147Y480388D01*
X148805Y480502D01*
X148748D01*
X148633Y480560D01*
X148462Y480588D01*
X148205Y480645D01*
X147891Y480702D01*
X147548Y480731D01*
X147177Y480788D01*
X152231D01*
D02*
G37*
G36*
X109320D02*
X108578D01*
X108236Y480759D01*
X107836Y480702D01*
X107807D01*
X107750Y480674D01*
X107636D01*
X107493Y480645D01*
X107151Y480560D01*
X106808Y480474D01*
X106780D01*
X106722Y480445D01*
X106637Y480417D01*
X106523Y480388D01*
X106237Y480274D01*
X105952Y480131D01*
X105923D01*
X105895Y480103D01*
X105752Y480046D01*
X105581Y479931D01*
X105466Y479846D01*
X105438Y479817D01*
X105381Y479789D01*
X105324Y479703D01*
X105295Y479646D01*
Y479617D01*
X105267Y479589D01*
X105209Y479418D01*
Y479389D01*
X105181Y479332D01*
Y479189D01*
Y479046D01*
Y479018D01*
X105152Y478904D01*
Y478732D01*
Y478532D01*
Y478504D01*
Y478475D01*
Y478333D01*
Y478133D01*
X105181Y477933D01*
Y477904D01*
X105209Y477790D01*
X105238Y477676D01*
X105267Y477562D01*
Y477533D01*
X105295Y477476D01*
X105381Y477333D01*
X105438Y477305D01*
X105495Y477276D01*
X105609D01*
X105666Y477305D01*
X105809Y477333D01*
X106009Y477419D01*
X106066Y477448D01*
X106209Y477533D01*
X106437Y477648D01*
X106722Y477790D01*
X106751D01*
X106780Y477819D01*
X106865Y477876D01*
X106980Y477904D01*
X107294Y478019D01*
X107693Y478161D01*
X107722D01*
X107779Y478190D01*
X107893Y478218D01*
X108036Y478247D01*
X108236Y478276D01*
X108435Y478304D01*
X108892Y478333D01*
X109064D01*
X109206Y478304D01*
X109492Y478276D01*
X109806Y478190D01*
X109834D01*
X109863Y478161D01*
X110034Y478104D01*
X110234Y477990D01*
X110434Y477847D01*
X110463Y477819D01*
X110577Y477705D01*
X110691Y477533D01*
X110805Y477305D01*
X110834Y477248D01*
X110862Y477105D01*
X110891Y476905D01*
X110919Y476648D01*
Y476620D01*
Y476563D01*
X110891Y476477D01*
Y476334D01*
X110805Y476049D01*
X110662Y475735D01*
Y475706D01*
X110605Y475678D01*
X110463Y475506D01*
X110206Y475306D01*
X109892Y475078D01*
X109863D01*
X109806Y475021D01*
X109692Y474964D01*
X109578Y474907D01*
X109235Y474735D01*
X108807Y474536D01*
X108778D01*
X108692Y474478D01*
X108578Y474450D01*
X108435Y474364D01*
X108036Y474193D01*
X107608Y473993D01*
X107579D01*
X107493Y473936D01*
X107379Y473879D01*
X107208Y473793D01*
X106837Y473593D01*
X106380Y473336D01*
X106351Y473308D01*
X106266Y473279D01*
X106152Y473194D01*
X106009Y473079D01*
X105666Y472794D01*
X105324Y472452D01*
X105295Y472423D01*
X105238Y472366D01*
X105152Y472252D01*
X105038Y472109D01*
X104924Y471938D01*
X104781Y471738D01*
X104553Y471252D01*
X104524Y471224D01*
X104496Y471138D01*
X104439Y470995D01*
X104382Y470796D01*
X104324Y470567D01*
X104296Y470282D01*
X104239Y469968D01*
Y480788D01*
D01*
Y464715D01*
X114374D01*
D01*
X110291D01*
X110491Y464743D01*
X110719D01*
X110976Y464772D01*
X111490Y464857D01*
X111519D01*
X111604Y464886D01*
X111747Y464914D01*
X111890Y464943D01*
X112290Y465057D01*
X112718Y465171D01*
X112746D01*
X112804Y465200D01*
X112889Y465228D01*
X113032Y465285D01*
X113317Y465400D01*
X113603Y465542D01*
X113660Y465571D01*
X113803Y465657D01*
X113974Y465771D01*
X114117Y465914D01*
X114145Y465942D01*
X114202Y466028D01*
X114260Y466171D01*
X114317Y466370D01*
Y466427D01*
X114345Y466570D01*
X114374Y466827D01*
Y467883D01*
X114345Y467969D01*
X114317Y468112D01*
X114288Y468226D01*
Y468255D01*
X114260Y468312D01*
X114202Y468397D01*
X114145Y468455D01*
X114117Y468483D01*
X114088Y468512D01*
X114031Y468540D01*
X113917D01*
X113831Y468512D01*
X113660Y468455D01*
X113460Y468312D01*
X113432D01*
X113403Y468283D01*
X113232Y468198D01*
X113003Y468055D01*
X112689Y467883D01*
X112661D01*
X112604Y467855D01*
X112490Y467798D01*
X112375Y467741D01*
X112204Y467684D01*
X112004Y467598D01*
X111547Y467455D01*
X111519D01*
X111433Y467427D01*
X111291Y467398D01*
X111091Y467370D01*
X110862Y467313D01*
X110605Y467284D01*
X110006Y467255D01*
X109777D01*
X109635Y467284D01*
X109292Y467313D01*
X108949Y467370D01*
X108921D01*
X108864Y467398D01*
X108778Y467427D01*
X108692Y467484D01*
X108435Y467598D01*
X108179Y467769D01*
X108150D01*
X108121Y467826D01*
X108007Y467941D01*
X107836Y468140D01*
X107693Y468397D01*
Y468426D01*
X107665Y468455D01*
X107608Y468654D01*
X107550Y468911D01*
X107522Y469225D01*
Y469254D01*
Y469311D01*
X107550Y469397D01*
Y469539D01*
X107665Y469825D01*
X107722Y469968D01*
X107836Y470110D01*
Y470139D01*
X107893Y470168D01*
X108036Y470339D01*
X108264Y470567D01*
X108578Y470796D01*
X108607D01*
X108664Y470853D01*
X108750Y470910D01*
X108892Y470967D01*
X109206Y471138D01*
X109635Y471338D01*
X109663D01*
X109720Y471395D01*
X109834Y471452D01*
X110006Y471509D01*
X110177Y471595D01*
X110377Y471709D01*
X110834Y471909D01*
X110862D01*
X110948Y471966D01*
X111062Y472023D01*
X111233Y472109D01*
X111604Y472309D01*
X112061Y472537D01*
X112090Y472566D01*
X112147Y472594D01*
X112261Y472680D01*
X112404Y472794D01*
X112746Y473079D01*
X113089Y473422D01*
X113118Y473451D01*
X113175Y473508D01*
X113260Y473622D01*
X113346Y473765D01*
X113460Y473936D01*
X113603Y474136D01*
X113831Y474621D01*
Y474650D01*
X113889Y474735D01*
X113917Y474907D01*
X113974Y475107D01*
X114031Y475335D01*
X114060Y475620D01*
X114117Y475963D01*
Y476306D01*
Y476363D01*
Y476506D01*
X114088Y476705D01*
X114060Y476962D01*
X114031Y477276D01*
X113946Y477590D01*
X113860Y477933D01*
X113717Y478247D01*
X113689Y478276D01*
X113631Y478390D01*
X113546Y478561D01*
X113432Y478732D01*
X113260Y478961D01*
X113089Y479189D01*
X112861Y479418D01*
X112604Y479646D01*
X112575Y479674D01*
X112490Y479732D01*
X112318Y479846D01*
X112118Y479960D01*
X111890Y480103D01*
X111604Y480246D01*
X111291Y480388D01*
X110948Y480502D01*
X110891D01*
X110777Y480560D01*
X110605Y480588D01*
X110348Y480645D01*
X110034Y480702D01*
X109692Y480731D01*
X109320Y480788D01*
D02*
G37*
G36*
X116030Y468740D02*
Y468112D01*
D01*
Y468740D01*
D02*
G37*
G36*
X100613Y480588D02*
X100013D01*
X99756Y480560D01*
X99528Y480531D01*
X99471D01*
X99357Y480502D01*
X99185Y480474D01*
X99043Y480445D01*
X99014D01*
X98957Y480417D01*
X98871Y480360D01*
X98786Y480274D01*
X98757D01*
X98729Y480217D01*
X98700Y480160D01*
Y480074D01*
Y470910D01*
Y470881D01*
Y470767D01*
Y470596D01*
X98672Y470367D01*
X98643Y470110D01*
X98614Y469853D01*
X98472Y469311D01*
Y469282D01*
X98415Y469197D01*
X98386Y469083D01*
X98300Y468911D01*
X98101Y468540D01*
X97844Y468169D01*
X97815Y468140D01*
X97758Y468112D01*
X97672Y468026D01*
X97558Y467941D01*
X97215Y467712D01*
X96816Y467512D01*
X96787D01*
X96702Y467484D01*
X96587Y467455D01*
X96416Y467427D01*
X96216Y467370D01*
X95988Y467341D01*
X95474Y467313D01*
X95217D01*
X95017Y467341D01*
X94618Y467398D01*
X94161Y467512D01*
X94132D01*
X94046Y467570D01*
X93961Y467598D01*
X93818Y467684D01*
X93476Y467883D01*
X93161Y468169D01*
X93133Y468198D01*
X93076Y468255D01*
X93019Y468340D01*
X92905Y468483D01*
X92819Y468626D01*
X92705Y468826D01*
X92505Y469254D01*
Y469282D01*
X92476Y469368D01*
X92419Y469511D01*
X92391Y469682D01*
X92333Y469911D01*
X92305Y470168D01*
X92276Y470738D01*
Y480074D01*
Y480103D01*
Y480131D01*
X92219Y480274D01*
X92191Y480303D01*
X92162Y480331D01*
X92077Y480388D01*
X91962Y480445D01*
X91934D01*
X91848Y480474D01*
X91705Y480502D01*
X91506Y480531D01*
X91448D01*
X91277Y480560D01*
X91049Y480588D01*
X92114D01*
X89164D01*
Y464715D01*
D01*
Y470539D01*
X89193Y470253D01*
X89222Y469911D01*
X89279Y469511D01*
X89336Y469083D01*
X89450Y468626D01*
X89593Y468198D01*
X89621Y468140D01*
X89678Y468026D01*
X89764Y467798D01*
X89907Y467541D01*
X90078Y467255D01*
X90307Y466913D01*
X90563Y466599D01*
X90849Y466285D01*
X90878Y466256D01*
X90992Y466171D01*
X91163Y466028D01*
X91391Y465857D01*
X91677Y465657D01*
X92020Y465457D01*
X92419Y465285D01*
X92847Y465114D01*
X92905Y465086D01*
X93047Y465057D01*
X93304Y465000D01*
X93647Y464914D01*
X94046Y464829D01*
X94532Y464772D01*
X95046Y464743D01*
X95617Y464715D01*
X89164D01*
X101840D01*
X95874D01*
X96131Y464743D01*
X96502Y464772D01*
X96902Y464800D01*
X97330Y464857D01*
X97787Y464943D01*
X98243Y465057D01*
X98300Y465086D01*
X98443Y465114D01*
X98643Y465228D01*
X98928Y465343D01*
X99214Y465485D01*
X99557Y465685D01*
X99899Y465914D01*
X100213Y466171D01*
X100242Y466199D01*
X100356Y466313D01*
X100499Y466456D01*
X100670Y466684D01*
X100870Y466941D01*
X101070Y467255D01*
X101270Y467627D01*
X101441Y468026D01*
X101469Y468083D01*
X101498Y468226D01*
X101555Y468455D01*
X101641Y468769D01*
X101726Y469140D01*
X101783Y469596D01*
X101812Y470082D01*
X101840Y470624D01*
Y480131D01*
X101783Y480274D01*
X101755Y480303D01*
X101726Y480331D01*
X101641Y480388D01*
X101526Y480445D01*
X101498D01*
X101412Y480474D01*
X101270Y480502D01*
X101070Y480531D01*
X101013D01*
X100841Y480560D01*
X100613Y480588D01*
D02*
G37*
G36*
X138641Y480502D02*
X134644D01*
X134330Y480474D01*
X133959Y480445D01*
X133873D01*
X133759Y480417D01*
X133616D01*
X133445Y480388D01*
X133245Y480360D01*
X132760Y480274D01*
X132731D01*
X132646Y480246D01*
X132503Y480217D01*
X132303Y480160D01*
X132103Y480074D01*
X131846Y479989D01*
X131332Y479760D01*
X131304Y479732D01*
X131218Y479703D01*
X131075Y479617D01*
X130904Y479503D01*
X130533Y479218D01*
X130133Y478818D01*
X130105Y478789D01*
X130048Y478704D01*
X129962Y478590D01*
X129848Y478447D01*
X129705Y478247D01*
X129591Y478019D01*
X129362Y477476D01*
Y477448D01*
X129305Y477333D01*
X129277Y477191D01*
X129220Y476991D01*
X129163Y476734D01*
X129134Y476448D01*
X129077Y476106D01*
Y475535D01*
X129105Y475306D01*
X129134Y474992D01*
X129191Y474621D01*
X129248Y474250D01*
X129362Y473850D01*
X129505Y473451D01*
X129534Y473394D01*
X129591Y473279D01*
X129676Y473108D01*
X129791Y472880D01*
X129962Y472594D01*
X130190Y472309D01*
X130419Y472023D01*
X130704Y471766D01*
X130733Y471738D01*
X130847Y471652D01*
X131018Y471538D01*
X131218Y471367D01*
X131504Y471195D01*
X131846Y471024D01*
X132217Y470853D01*
X132617Y470710D01*
X132674D01*
X132817Y470653D01*
X133045Y470596D01*
X133359Y470539D01*
X133759Y470481D01*
X134216Y470424D01*
X134701Y470396D01*
X135272Y470367D01*
X136557D01*
Y465400D01*
Y465371D01*
Y465343D01*
X136585Y465257D01*
X136643Y465171D01*
X136671D01*
X136700Y465114D01*
X136785Y465086D01*
X136899Y465029D01*
X136928D01*
X137014Y465000D01*
X137185D01*
X137385Y464972D01*
X137442D01*
X137585Y464943D01*
X137842Y464914D01*
X129077D01*
D01*
X139697D01*
X138413D01*
X138670Y464943D01*
X138926Y464972D01*
X138984D01*
X139098Y465000D01*
X139241D01*
X139383Y465029D01*
X139412D01*
X139469Y465057D01*
X139555Y465114D01*
X139640Y465171D01*
Y465200D01*
X139669Y465257D01*
X139697Y465400D01*
Y479446D01*
X139669Y479560D01*
Y479674D01*
X139583Y479960D01*
X139412Y480217D01*
X139355Y480274D01*
X139212Y480360D01*
X138955Y480445D01*
X138641Y480502D01*
D02*
G37*
G36*
X80942Y480588D02*
X72977Y480588D01*
Y464914D01*
D01*
Y465200D01*
X73063Y465086D01*
X73091D01*
X73177Y465028D01*
X73320Y465000D01*
X73548Y464971D01*
X73605D01*
X73691Y464943D01*
X73776D01*
X74062Y464914D01*
X72977D01*
X75118D01*
X75404Y464943D01*
X75461D01*
X75603Y464971D01*
X75775D01*
X75946Y465000D01*
X75975D01*
X76032Y465028D01*
X76117Y465086D01*
X76203Y465143D01*
Y465171D01*
X76231Y465200D01*
X76260Y465285D01*
X76289Y465400D01*
X77316Y468540D01*
X83169Y468540D01*
X84140Y465485D01*
Y465457D01*
X84168Y465400D01*
X84283Y465200D01*
Y465171D01*
X84340Y465143D01*
X84425Y465086D01*
X84539Y465029D01*
X84568D01*
X84654Y465000D01*
X84825Y464972D01*
X85025Y464943D01*
X85253D01*
X85510Y464914D01*
X86167D01*
X86452Y464943D01*
X86709Y464972D01*
X86766D01*
X86881Y465000D01*
X87023Y465057D01*
X87166Y465114D01*
X87195Y465143D01*
X87223Y465228D01*
X87252Y465343D01*
Y465542D01*
X87195Y465657D01*
X87137Y465885D01*
X87052Y466171D01*
X82255Y479960D01*
Y479989D01*
X82227Y480074D01*
X82170Y480188D01*
X82113Y480274D01*
X82084Y480303D01*
X82027Y480360D01*
X81941Y480417D01*
X81799Y480474D01*
X81770D01*
X81627Y480502D01*
X81456Y480531D01*
X81199Y480560D01*
X81056D01*
X80942Y480588D01*
D02*
G37*
%LPD*%
G36*
X121683Y474193D02*
X121882Y474136D01*
X121939Y474107D01*
X122054Y474079D01*
X122254Y473965D01*
X122482Y473822D01*
X122539Y473793D01*
X122653Y473679D01*
X122853Y473508D01*
X123110Y473279D01*
X123167Y473222D01*
X123310Y473051D01*
X123510Y472823D01*
X123767Y472480D01*
Y468940D01*
X123738Y468911D01*
X123652Y468797D01*
X123538Y468654D01*
X123367Y468483D01*
X122996Y468055D01*
X122796Y467855D01*
X122568Y467684D01*
X122539Y467655D01*
X122453Y467627D01*
X122339Y467570D01*
X122196Y467484D01*
X122025Y467398D01*
X121825Y467341D01*
X121597Y467313D01*
X121369Y467284D01*
X121254D01*
X121169Y467313D01*
X121026D01*
X120683Y467398D01*
X120369Y467570D01*
X120341Y467598D01*
X120312Y467627D01*
X120141Y467798D01*
X119912Y468026D01*
X119713Y468340D01*
Y468369D01*
X119656Y468426D01*
X119627Y468540D01*
X119541Y468654D01*
X119427Y468997D01*
X119313Y469425D01*
Y469454D01*
X119284Y469539D01*
X119256Y469654D01*
X119227Y469825D01*
Y469996D01*
X119199Y470225D01*
X119170Y470681D01*
Y470710D01*
Y470796D01*
Y470938D01*
Y471110D01*
X119199Y471310D01*
X119227Y471538D01*
X119284Y471995D01*
Y472023D01*
X119313Y472109D01*
X119341Y472223D01*
X119370Y472366D01*
X119484Y472737D01*
X119656Y473108D01*
Y473137D01*
X119684Y473194D01*
X119741Y473279D01*
X119827Y473394D01*
X120027Y473651D01*
X120284Y473908D01*
X120312Y473936D01*
X120341Y473965D01*
X120455Y474022D01*
X120569Y474079D01*
X120712Y474136D01*
X120883Y474164D01*
X121083Y474221D01*
X121483D01*
X121683Y474193D01*
D02*
G37*
G36*
X104267Y469197D02*
X104296Y468911D01*
X104353Y468569D01*
X104439Y468198D01*
X104553Y467826D01*
X104696Y467484D01*
X104724Y467455D01*
X104781Y467341D01*
X104895Y467170D01*
X105009Y466941D01*
X105209Y466713D01*
X105409Y466456D01*
X105666Y466199D01*
X105952Y465942D01*
X105980Y465914D01*
X106094Y465828D01*
X106237Y465714D01*
X106466Y465600D01*
X106722Y465428D01*
X107037Y465285D01*
X107408Y465143D01*
X107779Y465000D01*
X107836D01*
X107950Y464943D01*
X108179Y464914D01*
X108435Y464857D01*
X108778Y464800D01*
X109149Y464772D01*
X109578Y464715D01*
X104239D01*
Y469425D01*
X104267Y469197D01*
D02*
G37*
G36*
X90221Y480560D02*
X89993Y480531D01*
X89935D01*
X89821Y480502D01*
X89650Y480474D01*
X89507Y480445D01*
X89479D01*
X89422Y480417D01*
X89336Y480360D01*
X89250Y480274D01*
X89222D01*
X89193Y480217D01*
X89164Y480160D01*
Y480588D01*
X90478D01*
X90221Y480560D01*
D02*
G37*
G36*
X136557Y472794D02*
X134872D01*
X134701Y472823D01*
X134301Y472880D01*
X133873Y472994D01*
X133845D01*
X133787Y473022D01*
X133702Y473079D01*
X133588Y473137D01*
X133302Y473308D01*
X133045Y473565D01*
X133017Y473593D01*
X132988Y473622D01*
X132931Y473708D01*
X132845Y473822D01*
X132674Y474079D01*
X132531Y474421D01*
Y474450D01*
X132503Y474507D01*
X132474Y474621D01*
X132446Y474764D01*
X132389Y475107D01*
X132360Y475535D01*
Y475563D01*
Y475678D01*
X132389Y475820D01*
Y476020D01*
X132503Y476448D01*
X132560Y476677D01*
X132674Y476877D01*
Y476905D01*
X132731Y476962D01*
X132788Y477076D01*
X132874Y477191D01*
X133102Y477448D01*
X133388Y477676D01*
X133416D01*
X133445Y477705D01*
X133531Y477762D01*
X133645Y477819D01*
X133930Y477904D01*
X134273Y477990D01*
X134301D01*
X134359Y478019D01*
X134444D01*
X134558Y478047D01*
X134872Y478076D01*
X136557D01*
Y472794D01*
D02*
G37*
G36*
X82455Y470967D02*
X78087Y470967D01*
X80257Y477562D01*
X82455Y470967D01*
D02*
G37*
G36*
X79286Y480560D02*
X79029D01*
X78858Y480531D01*
X78658Y480502D01*
X78458Y480474D01*
X78430D01*
X78316Y480417D01*
X78201Y480360D01*
X78116Y480274D01*
X78087Y480246D01*
X78059Y480188D01*
X78002Y480046D01*
X77944Y479903D01*
X73148Y466142D01*
Y466113D01*
X73120Y466085D01*
X73063Y465885D01*
X73005Y465685D01*
X72977Y465457D01*
Y480588D01*
X79458D01*
X79286Y480560D01*
D02*
G37*
%LPC*%
G36*
X875181Y483060D02*
X862391D01*
D01*
X863561D01*
X863333Y483031D01*
X863104Y483002D01*
X863047D01*
X862933Y482974D01*
X862790Y482945D01*
X862676Y482888D01*
X862647D01*
X862590Y482860D01*
X862533Y482803D01*
X862476Y482746D01*
X862448Y482717D01*
X862419Y482688D01*
X862391Y482603D01*
D01*
D01*
Y467414D01*
Y468414D01*
X862448Y468242D01*
X862505Y468071D01*
X862533Y468042D01*
X862562Y467957D01*
X862647Y467843D01*
X862762Y467728D01*
X862790Y467700D01*
X862876Y467643D01*
X862990Y467586D01*
X863161Y467529D01*
X863190D01*
X863276Y467500D01*
X863418Y467472D01*
X865188D01*
X865417Y467500D01*
X865674Y467529D01*
X865731Y467557D01*
X865873Y467614D01*
X866045Y467700D01*
X866245Y467843D01*
X866302Y467871D01*
X866416Y468014D01*
X866559Y468185D01*
X866759Y468442D01*
Y468471D01*
X866787Y468499D01*
X866844Y468585D01*
X866901Y468699D01*
X867073Y469013D01*
X867272Y469413D01*
X871127Y476693D01*
X871155Y476721D01*
X871184Y476807D01*
X871241Y476921D01*
X871327Y477093D01*
X871441Y477293D01*
X871555Y477550D01*
X871812Y478063D01*
X871840Y478092D01*
X871869Y478206D01*
X871926Y478349D01*
X872012Y478549D01*
X872097Y478777D01*
X872212Y479006D01*
X872411Y479548D01*
X872440D01*
Y479519D01*
Y479405D01*
X872411Y479234D01*
Y479006D01*
X872383Y478749D01*
Y478434D01*
X872354Y477806D01*
Y477778D01*
Y477664D01*
Y477492D01*
X872326Y477264D01*
Y477007D01*
Y476693D01*
Y476036D01*
Y467928D01*
Y467900D01*
Y467843D01*
X872354Y467785D01*
X872411Y467700D01*
X872468Y467643D01*
X872526Y467614D01*
X872640Y467557D01*
X872668D01*
X872754Y467529D01*
X872897Y467500D01*
X873097Y467472D01*
X873154D01*
X873268Y467443D01*
X873496Y467414D01*
X874039D01*
X874267Y467443D01*
X874495Y467472D01*
X874524D01*
X874638Y467500D01*
X874781Y467529D01*
X874924Y467557D01*
X874952D01*
X875009Y467586D01*
X875067Y467643D01*
X875124Y467700D01*
Y467728D01*
X875152Y467757D01*
X875181Y467928D01*
Y467529D01*
Y483060D01*
D02*
G37*
G36*
X933622Y483259D02*
X922145D01*
D01*
X926056D01*
X925656Y483202D01*
X925200Y483145D01*
X925171D01*
X925085Y483117D01*
X924971Y483088D01*
X924828Y483060D01*
X924486Y482974D01*
X924086Y482860D01*
X924058D01*
X924000Y482831D01*
X923915Y482803D01*
X923772Y482746D01*
X923487Y482631D01*
X923173Y482460D01*
X923144D01*
X923115Y482431D01*
X922944Y482317D01*
X922773Y482203D01*
X922602Y482060D01*
X922573Y482032D01*
X922516Y481975D01*
X922430Y481889D01*
X922373Y481803D01*
Y481775D01*
X922345Y481718D01*
X922316Y481632D01*
X922288Y481518D01*
Y481489D01*
X922259Y481404D01*
Y481289D01*
X922230Y481118D01*
Y481090D01*
X922202Y480975D01*
Y480804D01*
Y480576D01*
Y480547D01*
Y480519D01*
Y480347D01*
Y480148D01*
X922230Y479948D01*
Y479919D01*
X922259Y479805D01*
X922288Y479662D01*
X922316Y479548D01*
Y479519D01*
X922345Y479462D01*
X922459Y479319D01*
X922516Y479291D01*
X922659Y479262D01*
X922687D01*
X922773Y479291D01*
X922916Y479348D01*
X923115Y479462D01*
X923173Y479491D01*
X923315Y479605D01*
X923544Y479748D01*
X923829Y479919D01*
X923858D01*
X923915Y479976D01*
X924000Y480005D01*
X924115Y480062D01*
X924286Y480148D01*
X924457Y480233D01*
X924886Y480376D01*
X924914D01*
X925000Y480404D01*
X925114Y480462D01*
X925285Y480490D01*
X925485Y480547D01*
X925742Y480576D01*
X925999Y480604D01*
X926456D01*
X926627Y480576D01*
X926855Y480547D01*
X927112Y480519D01*
X927398Y480433D01*
X927683Y480347D01*
X927969Y480205D01*
X927998Y480176D01*
X928083Y480148D01*
X928226Y480062D01*
X928397Y479919D01*
X928568Y479776D01*
X928797Y479605D01*
X928997Y479377D01*
X929196Y479120D01*
X929225Y479091D01*
X929282Y479006D01*
X929368Y478863D01*
X929482Y478663D01*
X929596Y478406D01*
X929739Y478120D01*
X929853Y477806D01*
X929967Y477435D01*
Y477378D01*
X929996Y477264D01*
X930053Y477064D01*
X930082Y476779D01*
X930139Y476465D01*
X930196Y476065D01*
X930224Y475665D01*
Y475208D01*
Y475180D01*
Y475151D01*
Y474980D01*
X930196Y474723D01*
Y474409D01*
X930167Y474038D01*
X930110Y473638D01*
X930053Y473238D01*
X929967Y472839D01*
Y472782D01*
X929910Y472668D01*
X929853Y472496D01*
X929768Y472268D01*
X929653Y471982D01*
X929511Y471725D01*
X929339Y471440D01*
X929168Y471183D01*
X929139Y471154D01*
X929082Y471069D01*
X928968Y470955D01*
X928797Y470840D01*
X928625Y470669D01*
X928397Y470526D01*
X928140Y470383D01*
X927883Y470241D01*
X927855D01*
X927740Y470184D01*
X927598Y470155D01*
X927398Y470098D01*
X927141Y470041D01*
X926884Y469984D01*
X926570Y469955D01*
X926227Y469927D01*
X925942D01*
X925742Y469955D01*
X925285Y470012D01*
X924800Y470098D01*
X924771D01*
X924686Y470127D01*
X924572Y470184D01*
X924429Y470241D01*
X924086Y470355D01*
X923744Y470526D01*
X923715D01*
X923658Y470583D01*
X923487Y470669D01*
X923230Y470840D01*
X923001Y470983D01*
X922944Y471012D01*
X922830Y471097D01*
X922687Y471154D01*
X922573Y471183D01*
X922516D01*
X922402Y471126D01*
X922373D01*
X922345Y471069D01*
X922316Y471012D01*
X922259Y470926D01*
Y470897D01*
X922230Y470812D01*
X922202Y470698D01*
X922173Y470526D01*
Y470469D01*
X922145Y470355D01*
Y469498D01*
X922173Y469327D01*
Y469299D01*
X922202Y469213D01*
Y469099D01*
X922230Y468956D01*
Y468927D01*
X922259Y468870D01*
X922316Y468699D01*
Y468671D01*
X922373Y468642D01*
X922430Y468556D01*
X922516Y468471D01*
X922544Y468442D01*
X922630Y468385D01*
X922801Y468242D01*
X923030Y468100D01*
X923058D01*
X923087Y468071D01*
X923173Y468014D01*
X923287Y467985D01*
X923572Y467843D01*
X923943Y467700D01*
X923972D01*
X924029Y467671D01*
X924143Y467643D01*
X924315Y467586D01*
X924486Y467529D01*
X924714Y467472D01*
X925200Y467386D01*
X925228D01*
X925314Y467357D01*
X925456Y467329D01*
X925656D01*
X925885Y467300D01*
X926142Y467272D01*
X926713Y467243D01*
X926970D01*
X927284Y467272D01*
X927683Y467300D01*
X928112Y467357D01*
X928597Y467443D01*
X929111Y467557D01*
X929596Y467728D01*
X929653Y467757D01*
X929796Y467814D01*
X930053Y467928D01*
X930339Y468100D01*
X930710Y468299D01*
X931052Y468556D01*
X931423Y468842D01*
X931795Y469184D01*
X931823Y469241D01*
X931937Y469356D01*
X932109Y469556D01*
X932308Y469841D01*
X932508Y470212D01*
X932737Y470612D01*
X932965Y471097D01*
X933165Y471611D01*
Y471640D01*
X933194Y471668D01*
Y471754D01*
X933222Y471868D01*
X933279Y472011D01*
X933308Y472182D01*
X933393Y472610D01*
X933479Y473096D01*
X933536Y473695D01*
X933593Y474323D01*
X933622Y475037D01*
Y475380D01*
X933593Y475551D01*
Y475751D01*
X933565Y476208D01*
X933508Y476750D01*
X933393Y477350D01*
X933279Y477949D01*
X933108Y478549D01*
Y478577D01*
X933079Y478606D01*
X933051Y478691D01*
X933022Y478806D01*
X932908Y479091D01*
X932737Y479462D01*
X932537Y479862D01*
X932280Y480290D01*
X931994Y480718D01*
X931652Y481118D01*
X931595Y481175D01*
X931480Y481289D01*
X931281Y481489D01*
X930995Y481718D01*
X930653Y481975D01*
X930281Y482232D01*
X929853Y482489D01*
X929368Y482717D01*
X929339D01*
X929311Y482746D01*
X929139Y482803D01*
X928854Y482888D01*
X928511Y483002D01*
X928055Y483088D01*
X927569Y483174D01*
X927027Y483231D01*
X926456Y483259D01*
X933622D01*
D01*
D02*
G37*
G36*
X919889Y483002D02*
X908384D01*
D01*
X914265D01*
X913951Y482974D01*
X913894D01*
X913723Y482945D01*
X913494D01*
X913237Y482917D01*
X913180D01*
X913066Y482888D01*
X912895Y482860D01*
X912666Y482803D01*
X912409Y482746D01*
X912124Y482660D01*
X911553Y482431D01*
X911524D01*
X911410Y482374D01*
X911267Y482317D01*
X911096Y482203D01*
X910696Y481946D01*
X910268Y481604D01*
X910240Y481575D01*
X910182Y481518D01*
X910097Y481404D01*
X909983Y481261D01*
X909840Y481090D01*
X909726Y480861D01*
X909469Y480376D01*
Y480347D01*
X909412Y480262D01*
X909383Y480090D01*
X909326Y479891D01*
X909269Y479662D01*
X909240Y479377D01*
X909183Y479063D01*
Y478720D01*
Y478691D01*
Y478577D01*
Y478434D01*
X909212Y478263D01*
X909240Y478035D01*
X909269Y477806D01*
X909383Y477293D01*
Y477264D01*
X909412Y477178D01*
X909469Y477064D01*
X909526Y476921D01*
X909726Y476550D01*
X909983Y476151D01*
X910011Y476122D01*
X910040Y476065D01*
X910125Y475979D01*
X910240Y475836D01*
X910525Y475551D01*
X910925Y475266D01*
X910953Y475237D01*
X911010Y475208D01*
X911153Y475123D01*
X911296Y475066D01*
X911496Y474952D01*
X911696Y474866D01*
X912209Y474666D01*
X912181D01*
X912152Y474637D01*
X912010Y474552D01*
X911781Y474438D01*
X911553Y474266D01*
X911524D01*
X911496Y474238D01*
X911353Y474123D01*
X911182Y473924D01*
X910982Y473695D01*
Y473667D01*
X910925Y473638D01*
X910811Y473467D01*
X910668Y473210D01*
X910497Y472896D01*
Y472867D01*
X910440Y472810D01*
X910411Y472725D01*
X910325Y472610D01*
X910182Y472296D01*
X910011Y471925D01*
X908698Y468870D01*
Y468842D01*
X908669Y468785D01*
X908612Y468613D01*
X908527Y468385D01*
X908469Y468185D01*
X908441Y468157D01*
X908412Y468071D01*
X908384Y467957D01*
Y467814D01*
X908441Y467643D01*
X908498Y467586D01*
X908555Y467557D01*
X908669Y467500D01*
X908698D01*
X908812Y467472D01*
X908983D01*
X909212Y467443D01*
X909469D01*
X909754Y467414D01*
X910725D01*
X910982Y467443D01*
X911039D01*
X911153Y467472D01*
X911296Y467500D01*
X911439Y467529D01*
X911467D01*
X911524Y467557D01*
X911610Y467614D01*
X911696Y467671D01*
Y467700D01*
X911724Y467757D01*
X911781Y467928D01*
X913180Y471383D01*
Y471411D01*
X913237Y471468D01*
X913266Y471583D01*
X913352Y471725D01*
X913494Y472068D01*
X913694Y472411D01*
Y472439D01*
X913723Y472496D01*
X913780Y472582D01*
X913837Y472668D01*
X914008Y472924D01*
X914208Y473181D01*
Y473210D01*
X914265Y473238D01*
X914408Y473353D01*
X914608Y473495D01*
X914893Y473638D01*
X914922D01*
X914950Y473667D01*
X915036Y473695D01*
X915150Y473724D01*
X915436Y473781D01*
X915778Y473810D01*
X916749D01*
Y467900D01*
Y467871D01*
Y467843D01*
X916777Y467757D01*
X916835Y467671D01*
X916863D01*
X916892Y467614D01*
X916977Y467586D01*
X917092Y467529D01*
X917120D01*
X917206Y467500D01*
X917377D01*
X917577Y467472D01*
X917634D01*
X917777Y467443D01*
X918034Y467414D01*
X918605D01*
X918862Y467443D01*
X919118Y467472D01*
X919176D01*
X919290Y467500D01*
X919433D01*
X919575Y467529D01*
X919604D01*
X919661Y467557D01*
X919747Y467614D01*
X919832Y467671D01*
Y467700D01*
X919861Y467757D01*
X919889Y467900D01*
Y467586D01*
Y482089D01*
X919861Y482174D01*
Y482289D01*
X919775Y482546D01*
X919632Y482746D01*
X919575Y482774D01*
X919461Y482888D01*
X919233Y482974D01*
X918976Y483002D01*
X919889D01*
D01*
D02*
G37*
G36*
X881719Y483088D02*
X879891D01*
X879634Y483060D01*
X879406Y483031D01*
X879349D01*
X879235Y483002D01*
X879063Y482974D01*
X878921Y482945D01*
X878892D01*
X878807Y482917D01*
X878721Y482860D01*
X878635Y482774D01*
X878607D01*
X878578Y482717D01*
X878550Y482660D01*
Y467843D01*
X878578Y467757D01*
X878635Y467671D01*
X878664D01*
X878692Y467614D01*
X878778Y467586D01*
X878921Y467529D01*
X878949D01*
X879035Y467500D01*
X879206D01*
X879406Y467472D01*
X879463D01*
X879606Y467443D01*
X879834Y467414D01*
X880405D01*
X880662Y467443D01*
X880919Y467472D01*
X880976D01*
X881090Y467500D01*
X881233D01*
X881404Y467529D01*
X881433D01*
X881490Y467557D01*
X881576Y467614D01*
X881662Y467671D01*
Y467700D01*
X881690Y467757D01*
X881719Y467900D01*
Y467443D01*
Y482631D01*
X881662Y482774D01*
X881633Y482803D01*
X881604Y482831D01*
X881519Y482888D01*
X881404Y482945D01*
X881376D01*
X881262Y482974D01*
X881119Y483002D01*
X880919Y483031D01*
X880862D01*
X880691Y483060D01*
X880462Y483088D01*
X881719D01*
D01*
D02*
G37*
G36*
X907527D02*
X895251D01*
D01*
X896507D01*
X896165Y483060D01*
X895993D01*
X895851Y483031D01*
X895794D01*
X895651Y483002D01*
X895480Y482974D01*
X895337Y482888D01*
X895308Y482860D01*
X895280Y482803D01*
X895251Y482688D01*
X895280Y482517D01*
Y482460D01*
X895337Y482346D01*
X895422Y482117D01*
X895537Y481832D01*
X899790Y473353D01*
Y467900D01*
Y467871D01*
Y467843D01*
X899819Y467757D01*
X899876Y467671D01*
X899905D01*
X899933Y467614D01*
X900019Y467586D01*
X900162Y467529D01*
X900190D01*
X900276Y467500D01*
X900447D01*
X900647Y467472D01*
X900704D01*
X900847Y467443D01*
X901075Y467414D01*
X901646D01*
X901903Y467443D01*
X902160Y467472D01*
X902217D01*
X902331Y467500D01*
X902474D01*
X902645Y467529D01*
X902674D01*
X902731Y467557D01*
X902817Y467614D01*
X902902Y467671D01*
Y467700D01*
X902931Y467757D01*
X902960Y467900D01*
Y473353D01*
X907213Y481832D01*
Y481861D01*
X907242Y481918D01*
X907327Y482089D01*
X907442Y482289D01*
X907527Y482517D01*
Y482774D01*
X907442Y482888D01*
X907413Y482917D01*
X907327Y482945D01*
X907156Y483002D01*
X906928Y483031D01*
X906871D01*
X906785Y483060D01*
X906500D01*
X906328Y483088D01*
X907527D01*
D02*
G37*
G36*
X860249Y483088D02*
X847687D01*
X849058D01*
X848744Y483060D01*
X848458Y483031D01*
X848401D01*
X848258Y483002D01*
X848116Y482945D01*
X848001Y482860D01*
X847973Y482831D01*
X847944Y482774D01*
X847916Y482660D01*
Y482489D01*
Y482460D01*
X847973Y482317D01*
X848059Y482117D01*
X848173Y481803D01*
X851627Y475465D01*
X847973Y468671D01*
Y468642D01*
X847944Y468613D01*
X847859Y468414D01*
X847745Y468214D01*
X847687Y467985D01*
Y468014D01*
Y467728D01*
X847773Y467614D01*
X847802Y467586D01*
X847887Y467557D01*
X848059Y467500D01*
X848287Y467471D01*
X848344D01*
X848430Y467443D01*
X848715D01*
X848886Y467414D01*
X849943D01*
X850228Y467443D01*
X850285D01*
X850400Y467471D01*
X850571D01*
X850742Y467500D01*
X850771D01*
X850828Y467528D01*
X850913Y467586D01*
X850999Y467643D01*
Y467671D01*
X851056Y467728D01*
X851142Y467900D01*
X854054Y473495D01*
X856937Y467900D01*
Y467871D01*
X856995Y467814D01*
X857109Y467643D01*
X857166Y467586D01*
X857252Y467557D01*
X857366Y467500D01*
X857394D01*
X857480Y467471D01*
X857651D01*
X857880Y467443D01*
X858108D01*
X858393Y467414D01*
X859107D01*
X859450Y467443D01*
X859735Y467471D01*
X859792D01*
X859907Y467500D01*
X860078Y467557D01*
X860192Y467614D01*
X860221Y467643D01*
X860249Y467700D01*
Y467985D01*
X860221Y468042D01*
X860164Y468157D01*
X860078Y468385D01*
X859935Y468671D01*
X856224Y475437D01*
X859650Y481803D01*
Y481832D01*
X859678Y481889D01*
X859764Y482060D01*
X859878Y482289D01*
X859964Y482517D01*
Y482574D01*
X859992Y482660D01*
X859964Y482774D01*
X859907Y482888D01*
X859878Y482917D01*
X859792Y482945D01*
X859621Y483002D01*
X859393Y483031D01*
X859336D01*
X859250Y483060D01*
X858964D01*
X858793Y483088D01*
X860249D01*
D02*
G37*
G36*
X894252Y483288D02*
X884117D01*
D01*
X888456D01*
X888114Y483259D01*
X887714Y483202D01*
X887685D01*
X887628Y483174D01*
X887514D01*
X887371Y483145D01*
X887029Y483060D01*
X886686Y482974D01*
X886658D01*
X886600Y482945D01*
X886515Y482917D01*
X886401Y482888D01*
X886115Y482774D01*
X885830Y482631D01*
X885801D01*
X885773Y482603D01*
X885630Y482546D01*
X885459Y482431D01*
X885344Y482346D01*
X885316Y482317D01*
X885259Y482289D01*
X885202Y482203D01*
X885173Y482146D01*
Y482117D01*
X885145Y482089D01*
X885087Y481918D01*
Y481889D01*
X885059Y481832D01*
Y481689D01*
Y481546D01*
Y481518D01*
X885030Y481404D01*
Y481232D01*
Y481032D01*
Y481004D01*
Y480975D01*
Y480833D01*
Y480633D01*
X885059Y480433D01*
Y480404D01*
X885087Y480290D01*
X885116Y480176D01*
X885145Y480062D01*
Y480033D01*
X885173Y479976D01*
X885259Y479833D01*
X885316Y479805D01*
X885373Y479776D01*
X885487D01*
X885544Y479805D01*
X885687Y479833D01*
X885887Y479919D01*
X885944Y479948D01*
X886087Y480033D01*
X886315Y480148D01*
X886600Y480290D01*
X886629D01*
X886658Y480319D01*
X886743Y480376D01*
X886858Y480404D01*
X887171Y480519D01*
X887571Y480661D01*
X887600D01*
X887657Y480690D01*
X887771Y480718D01*
X887914Y480747D01*
X888114Y480776D01*
X888314Y480804D01*
X888770Y480833D01*
X888942D01*
X889084Y480804D01*
X889370Y480776D01*
X889684Y480690D01*
X889712D01*
X889741Y480661D01*
X889912Y480604D01*
X890112Y480490D01*
X890312Y480347D01*
X890340Y480319D01*
X890455Y480205D01*
X890569Y480033D01*
X890683Y479805D01*
X890712Y479748D01*
X890740Y479605D01*
X890769Y479405D01*
X890797Y479148D01*
Y479120D01*
Y479063D01*
X890769Y478977D01*
Y478834D01*
X890683Y478549D01*
X890540Y478235D01*
Y478206D01*
X890483Y478178D01*
X890340Y478006D01*
X890084Y477806D01*
X889770Y477578D01*
X889741D01*
X889684Y477521D01*
X889570Y477464D01*
X889455Y477407D01*
X889113Y477235D01*
X888685Y477036D01*
X888656D01*
X888570Y476978D01*
X888456Y476950D01*
X888314Y476864D01*
X887914Y476693D01*
X887486Y476493D01*
X887457D01*
X887371Y476436D01*
X887257Y476379D01*
X887086Y476293D01*
X886715Y476093D01*
X886258Y475836D01*
X886229Y475808D01*
X886144Y475779D01*
X886030Y475694D01*
X885887Y475579D01*
X885544Y475294D01*
X885202Y474952D01*
X885173Y474923D01*
X885116Y474866D01*
X885030Y474752D01*
X884916Y474609D01*
X884802Y474438D01*
X884659Y474238D01*
X884431Y473752D01*
X884402Y473724D01*
X884374Y473638D01*
X884317Y473495D01*
X884259Y473296D01*
X884202Y473067D01*
X884174Y472782D01*
X884117Y472468D01*
Y471925D01*
X884145Y471697D01*
X884174Y471411D01*
X884231Y471069D01*
X884317Y470698D01*
X884431Y470326D01*
X884574Y469984D01*
X884602Y469955D01*
X884659Y469841D01*
X884773Y469670D01*
X884888Y469441D01*
X885087Y469213D01*
X885287Y468956D01*
X885544Y468699D01*
X885830Y468442D01*
X885858Y468414D01*
X885972Y468328D01*
X886115Y468214D01*
X886344Y468100D01*
X886600Y467928D01*
X886915Y467785D01*
X887286Y467643D01*
X887657Y467500D01*
X887714D01*
X887828Y467443D01*
X888057Y467414D01*
X888314Y467357D01*
X888656Y467300D01*
X889027Y467272D01*
X889455Y467215D01*
X890169D01*
X890369Y467243D01*
X890598D01*
X890854Y467272D01*
X891368Y467357D01*
X891397D01*
X891482Y467386D01*
X891625Y467414D01*
X891768Y467443D01*
X892168Y467557D01*
X892596Y467671D01*
X892625D01*
X892682Y467700D01*
X892767Y467728D01*
X892910Y467785D01*
X893195Y467900D01*
X893481Y468042D01*
X893538Y468071D01*
X893681Y468157D01*
X893852Y468271D01*
X893995Y468414D01*
X894023Y468442D01*
X894081Y468528D01*
X894138Y468671D01*
X894195Y468870D01*
Y468927D01*
X894223Y469070D01*
X894252Y469327D01*
Y470383D01*
X894223Y470469D01*
X894195Y470612D01*
X894166Y470726D01*
Y470755D01*
X894138Y470812D01*
X894081Y470897D01*
X894023Y470955D01*
X893995Y470983D01*
X893966Y471012D01*
X893909Y471040D01*
X893795D01*
X893709Y471012D01*
X893538Y470955D01*
X893338Y470812D01*
X893310D01*
X893281Y470783D01*
X893110Y470698D01*
X892881Y470555D01*
X892567Y470383D01*
X892539D01*
X892482Y470355D01*
X892368Y470298D01*
X892253Y470241D01*
X892082Y470184D01*
X891882Y470098D01*
X891425Y469955D01*
X891397D01*
X891311Y469927D01*
X891169Y469898D01*
X890969Y469870D01*
X890740Y469813D01*
X890483Y469784D01*
X889884Y469755D01*
X889655D01*
X889513Y469784D01*
X889170Y469813D01*
X888827Y469870D01*
X888799D01*
X888742Y469898D01*
X888656Y469927D01*
X888570Y469984D01*
X888314Y470098D01*
X888057Y470269D01*
X888028D01*
X887999Y470326D01*
X887885Y470441D01*
X887714Y470640D01*
X887571Y470897D01*
Y470926D01*
X887543Y470955D01*
X887486Y471154D01*
X887429Y471411D01*
X887400Y471725D01*
Y471754D01*
Y471811D01*
X887429Y471897D01*
Y472039D01*
X887543Y472325D01*
X887600Y472468D01*
X887714Y472610D01*
Y472639D01*
X887771Y472668D01*
X887914Y472839D01*
X888142Y473067D01*
X888456Y473296D01*
X888485D01*
X888542Y473353D01*
X888628Y473410D01*
X888770Y473467D01*
X889084Y473638D01*
X889513Y473838D01*
X889541D01*
X889598Y473895D01*
X889712Y473952D01*
X889884Y474009D01*
X890055Y474095D01*
X890255Y474209D01*
X890712Y474409D01*
X890740D01*
X890826Y474466D01*
X890940Y474523D01*
X891111Y474609D01*
X891482Y474809D01*
X891939Y475037D01*
X891968Y475066D01*
X892025Y475094D01*
X892139Y475180D01*
X892282Y475294D01*
X892625Y475579D01*
X892967Y475922D01*
X892996Y475951D01*
X893053Y476008D01*
X893138Y476122D01*
X893224Y476265D01*
X893338Y476436D01*
X893481Y476636D01*
X893709Y477121D01*
Y477150D01*
X893766Y477235D01*
X893795Y477407D01*
X893852Y477607D01*
X893909Y477835D01*
X893938Y478120D01*
X893995Y478463D01*
Y478806D01*
Y478863D01*
Y479006D01*
X893966Y479205D01*
X893938Y479462D01*
X893909Y479776D01*
X893824Y480090D01*
X893738Y480433D01*
X893595Y480747D01*
X893567Y480776D01*
X893510Y480890D01*
X893424Y481061D01*
X893310Y481232D01*
X893138Y481461D01*
X892967Y481689D01*
X892739Y481918D01*
X892482Y482146D01*
X892453Y482174D01*
X892368Y482232D01*
X892196Y482346D01*
X891996Y482460D01*
X891768Y482603D01*
X891482Y482746D01*
X891169Y482888D01*
X890826Y483002D01*
X890769D01*
X890655Y483060D01*
X890483Y483088D01*
X890226Y483145D01*
X889912Y483202D01*
X889570Y483231D01*
X889199Y483288D01*
X894252D01*
D01*
D02*
G37*
%LPD*%
G36*
X875181Y481946D02*
X875152Y482060D01*
Y482174D01*
X875038Y482460D01*
X874981Y482603D01*
X874867Y482717D01*
X874838D01*
X874810Y482774D01*
X874638Y482860D01*
X874381Y482945D01*
X874067Y483002D01*
X872097D01*
X871840Y482974D01*
X871612Y482917D01*
X871583D01*
X871555Y482888D01*
X871412Y482860D01*
X871241Y482774D01*
X871041Y482631D01*
X870984Y482603D01*
X870898Y482517D01*
X870727Y482346D01*
X870584Y482146D01*
X870556Y482089D01*
X870442Y481946D01*
X870299Y481689D01*
X870127Y481375D01*
X867130Y475694D01*
Y475665D01*
X867073Y475608D01*
X867044Y475494D01*
X866958Y475380D01*
X866816Y475066D01*
X866616Y474695D01*
Y474666D01*
X866559Y474609D01*
X866530Y474523D01*
X866444Y474380D01*
X866302Y474066D01*
X866131Y473695D01*
Y473667D01*
X866073Y473610D01*
X866045Y473524D01*
X865959Y473381D01*
X865816Y473096D01*
X865645Y472725D01*
Y472696D01*
X865617Y472639D01*
X865559Y472553D01*
X865502Y472439D01*
X865360Y472125D01*
X865188Y471782D01*
Y471811D01*
Y471925D01*
Y472096D01*
X865217Y472325D01*
Y472582D01*
Y472867D01*
X865245Y473524D01*
Y473553D01*
Y473667D01*
Y473867D01*
Y474095D01*
Y474352D01*
Y474637D01*
Y475266D01*
Y482517D01*
Y482546D01*
Y482603D01*
X865188Y482746D01*
X865160Y482774D01*
X865131Y482803D01*
X864960Y482888D01*
X864931Y482917D01*
X864846Y482945D01*
X864703Y482974D01*
X864503Y483002D01*
X864446D01*
X864303Y483031D01*
X864075Y483060D01*
X875181D01*
Y481946D01*
D02*
G37*
G36*
X916749Y476179D02*
X914893D01*
X914750Y476208D01*
X914379Y476236D01*
X913980Y476322D01*
X913951D01*
X913894Y476350D01*
X913808Y476379D01*
X913666Y476436D01*
X913409Y476579D01*
X913123Y476779D01*
X913095Y476807D01*
X913066Y476836D01*
X912923Y476978D01*
X912752Y477207D01*
X912609Y477492D01*
Y477521D01*
X912581Y477578D01*
X912552Y477635D01*
X912524Y477749D01*
X912467Y478035D01*
X912438Y478406D01*
Y478434D01*
Y478549D01*
X912467Y478691D01*
X912495Y478863D01*
X912581Y479262D01*
X912695Y479491D01*
X912809Y479691D01*
X912838Y479719D01*
X912866Y479776D01*
X912952Y479862D01*
X913066Y480005D01*
X913237Y480119D01*
X913437Y480233D01*
X913666Y480376D01*
X913951Y480462D01*
X913980D01*
X914094Y480490D01*
X914265Y480519D01*
X914493Y480547D01*
X914551D01*
X914722Y480576D01*
X914979Y480604D01*
X916749D01*
Y476179D01*
D02*
G37*
G36*
X905044Y483060D02*
X904986D01*
X904844Y483031D01*
X904672Y483002D01*
X904530Y482945D01*
X904501D01*
X904416Y482917D01*
X904330Y482860D01*
X904244Y482774D01*
X904216Y482746D01*
X904187Y482717D01*
X904101Y482631D01*
X904044Y482517D01*
X902331Y478691D01*
Y478663D01*
X902274Y478606D01*
X902246Y478492D01*
X902160Y478349D01*
X902103Y478178D01*
X902017Y477978D01*
X901817Y477521D01*
Y477492D01*
X901760Y477407D01*
X901732Y477293D01*
X901646Y477150D01*
X901589Y476950D01*
X901503Y476721D01*
X901304Y476236D01*
Y476265D01*
X901275Y476350D01*
X901218Y476465D01*
X901161Y476636D01*
X901018Y477036D01*
X900847Y477492D01*
Y477521D01*
X900790Y477607D01*
X900761Y477721D01*
X900676Y477864D01*
X900533Y478263D01*
X900361Y478663D01*
X898620Y482460D01*
Y482489D01*
X898591Y482574D01*
X898534Y482688D01*
X898477Y482774D01*
X898449Y482803D01*
X898420Y482831D01*
X898334Y482888D01*
X898220Y482945D01*
X898192Y482974D01*
X898106Y483002D01*
X897935Y483031D01*
X897735Y483060D01*
X897678D01*
X897506Y483088D01*
X905301D01*
X905044Y483060D01*
D02*
G37*
G36*
X857451Y483060D02*
X857394D01*
X857252Y483031D01*
X857080Y483002D01*
X856909Y482974D01*
X856880D01*
X856795Y482945D01*
X856709Y482888D01*
X856652Y482803D01*
X856624Y482774D01*
X856595Y482746D01*
X856481Y482574D01*
X853797Y477435D01*
X851113Y482574D01*
Y482603D01*
X851085Y482660D01*
X850999Y482803D01*
X850971Y482831D01*
X850942Y482860D01*
X850856Y482917D01*
X850742Y482974D01*
X850714D01*
X850600Y483002D01*
X850457Y483031D01*
X850257Y483060D01*
X850200D01*
X850029Y483088D01*
X857708D01*
X857451Y483060D01*
D02*
G37*
D20*
X464908Y300908D02*
D03*
X477636Y313636D02*
D03*
X513636Y193636D02*
D03*
X526364Y206364D02*
D03*
X506364Y268864D02*
D03*
X493636Y256136D02*
D03*
X436364Y276364D02*
D03*
X423636Y263636D02*
D03*
X491364Y283864D02*
D03*
X478636Y271136D02*
D03*
X553636Y233636D02*
D03*
X566364Y246364D02*
D03*
X571344Y204436D02*
D03*
X584072Y217164D02*
D03*
X538007Y170731D02*
D03*
X550735Y183459D02*
D03*
X462728Y142728D02*
D03*
X450000Y130000D02*
D03*
X328864Y268864D02*
D03*
X316136Y256136D02*
D03*
X241136Y67500D02*
D03*
X253864Y80228D02*
D03*
X803864Y432301D02*
D03*
X791136Y419573D02*
D03*
D22*
X479772Y211286D02*
D03*
X492500Y198558D02*
D03*
X522728Y307272D02*
D03*
X510000Y320000D02*
D03*
X540908Y287328D02*
D03*
X553636Y274600D02*
D03*
X528636Y266835D02*
D03*
X541364Y254107D02*
D03*
X453864Y186136D02*
D03*
X441136Y198864D02*
D03*
X603636Y163864D02*
D03*
X616364Y151136D02*
D03*
X763864Y61136D02*
D03*
X751136Y73864D02*
D03*
X221364Y403636D02*
D03*
X208636Y416364D02*
D03*
D23*
X980000Y118400D02*
D03*
Y296200D02*
D03*
Y270800D02*
D03*
Y245400D02*
D03*
Y220000D02*
D03*
Y194600D02*
D03*
Y169200D02*
D03*
Y143800D02*
D03*
X509200Y74600D02*
D03*
X509200Y100000D02*
D03*
X534600Y74600D02*
D03*
Y100000D02*
D03*
X560000Y74600D02*
D03*
Y100000D02*
D03*
X585400Y74600D02*
D03*
Y100000D02*
D03*
X610800Y74600D02*
D03*
Y100000D02*
D03*
X636200Y74600D02*
D03*
Y100000D02*
D03*
X661600Y74600D02*
D03*
X661600Y100000D02*
D03*
X687000Y74600D02*
D03*
X750000Y40000D02*
D03*
X856200Y20000D02*
D03*
X881600D02*
D03*
X907000D02*
D03*
X742040Y442039D02*
D03*
X642500Y432500D02*
D03*
X617100D02*
D03*
X591700D02*
D03*
X407900D02*
D03*
X382500D02*
D03*
X357100D02*
D03*
X240000Y460000D02*
D03*
X30000Y217000D02*
D03*
Y191600D02*
D03*
Y166200D02*
D03*
Y140800D02*
D03*
Y115400D02*
D03*
X175400Y20000D02*
D03*
X150000D02*
D03*
X124600D02*
D03*
X99200D02*
D03*
X267960Y57961D02*
D03*
X465400Y100000D02*
D03*
X465400Y74600D02*
D03*
X440000Y100000D02*
D03*
Y74600D02*
D03*
X414600Y100000D02*
D03*
Y74600D02*
D03*
X389200Y100000D02*
D03*
Y74600D02*
D03*
X363800Y100000D02*
D03*
X363800Y74600D02*
D03*
X338400Y100000D02*
D03*
Y74600D02*
D03*
X313000Y100000D02*
D03*
X30000Y274600D02*
D03*
Y249200D02*
D03*
D24*
X980000Y93000D02*
D03*
X30000Y90000D02*
D03*
X30000Y300000D02*
D03*
D25*
X845000Y397901D02*
D03*
X687000Y100000D02*
D03*
X830800Y20000D02*
D03*
X667900Y432500D02*
D03*
X331700D02*
D03*
X150000Y396000D02*
D03*
X200800Y20000D02*
D03*
X313000Y74600D02*
D03*
D26*
X732040Y57961D02*
D03*
X257960Y442039D02*
D03*
D27*
X760000Y460000D02*
D03*
X250000Y40000D02*
D03*
D28*
X521998Y396000D02*
D03*
X478000D02*
D03*
D59*
X460454Y255910D02*
D03*
X479546Y236818D02*
D03*
D60*
X410711Y149290D02*
D03*
X340000Y220000D02*
D03*
D61*
X352400Y342636D02*
D03*
X375400Y342636D02*
D03*
X398400Y342636D02*
D03*
D62*
X375400Y284636D02*
D03*
D63*
X389206Y369701D02*
D03*
X416206D02*
D03*
D64*
X351316Y367500D02*
D03*
X369316D02*
D03*
X69452Y290000D02*
D03*
X87452D02*
D03*
X69452Y210800D02*
D03*
X87452D02*
D03*
X69620Y130000D02*
D03*
X87620D02*
D03*
X69452Y50000D02*
D03*
X87452D02*
D03*
X161000Y52500D02*
D03*
X179000D02*
D03*
X201000D02*
D03*
X219000D02*
D03*
X848000Y50000D02*
D03*
X830000D02*
D03*
X809000Y50000D02*
D03*
X791000D02*
D03*
X929000Y50000D02*
D03*
X911000D02*
D03*
X930380Y130000D02*
D03*
X912380D02*
D03*
X931587Y210000D02*
D03*
X913587D02*
D03*
X934937Y290000D02*
D03*
X916937D02*
D03*
X808000Y270000D02*
D03*
X790000D02*
D03*
X849000D02*
D03*
X831000D02*
D03*
X808000Y360000D02*
D03*
X790000D02*
D03*
X849000Y360000D02*
D03*
X831000D02*
D03*
X623500Y337500D02*
D03*
X641500D02*
D03*
X831000Y140000D02*
D03*
X849000D02*
D03*
X179000Y320000D02*
D03*
X161000D02*
D03*
X179000Y230000D02*
D03*
X161000D02*
D03*
X179000Y140000D02*
D03*
X161000D02*
D03*
X790000Y139162D02*
D03*
X808000D02*
D03*
X219000Y320000D02*
D03*
X201000D02*
D03*
X219000Y230500D02*
D03*
X201000D02*
D03*
X216164Y141297D02*
D03*
X198164D02*
D03*
D65*
X89870Y320000D02*
D03*
X67371Y329500D02*
D03*
Y310500D02*
D03*
X89870Y240000D02*
D03*
X67371Y249500D02*
D03*
Y230500D02*
D03*
X87452Y160000D02*
D03*
X64952Y169500D02*
D03*
Y150500D02*
D03*
X87452Y80000D02*
D03*
X64952Y89500D02*
D03*
Y70500D02*
D03*
X910000Y80000D02*
D03*
X932500Y70500D02*
D03*
Y89500D02*
D03*
X910130Y160000D02*
D03*
X932630Y150500D02*
D03*
Y169500D02*
D03*
X910130Y240000D02*
D03*
X932630Y230500D02*
D03*
Y249500D02*
D03*
X913587Y320000D02*
D03*
X936087Y310500D02*
D03*
Y329500D02*
D03*
D66*
X653671Y156731D02*
D03*
X644691Y165711D02*
D03*
X635711Y174691D02*
D03*
X626731Y183671D02*
D03*
X693270Y196329D02*
D03*
X684289Y205309D02*
D03*
X675309Y214289D02*
D03*
X666329Y223270D02*
D03*
D67*
X544499Y426000D02*
D03*
X455500D02*
D03*
Y371000D02*
D03*
X544499D02*
D03*
D68*
X483999Y370000D02*
D03*
X491999D02*
D03*
X499999D02*
D03*
X507999D02*
D03*
X515999D02*
D03*
M02*
