G04*
G04 #@! TF.GenerationSoftware,Altium Limited,Altium Designer,19.0.15 (446)*
G04*
G04 Layer_Color=8388736*
%FSLAX44Y44*%
%MOMM*%
G71*
G01*
G75*
%ADD16R,1.6032X1.4032*%
%ADD17R,2.2032X1.6032*%
G04:AMPARAMS|DCode=18|XSize=0.4532mm|YSize=1.7532mm|CornerRadius=0mm|HoleSize=0mm|Usage=FLASHONLY|Rotation=135.000|XOffset=0mm|YOffset=0mm|HoleType=Round|Shape=Round|*
%AMOVALD18*
21,1,1.3000,0.4532,0.0000,0.0000,225.0*
1,1,0.4532,0.4596,0.4596*
1,1,0.4532,-0.4596,-0.4596*
%
%ADD18OVALD18*%

G04:AMPARAMS|DCode=19|XSize=0.4532mm|YSize=1.7532mm|CornerRadius=0mm|HoleSize=0mm|Usage=FLASHONLY|Rotation=45.000|XOffset=0mm|YOffset=0mm|HoleType=Round|Shape=Round|*
%AMOVALD19*
21,1,1.3000,0.4532,0.0000,0.0000,135.0*
1,1,0.4532,0.4596,-0.4596*
1,1,0.4532,-0.4596,0.4596*
%
%ADD19OVALD19*%

G04:AMPARAMS|DCode=20|XSize=1.6032mm|YSize=1.4032mm|CornerRadius=0mm|HoleSize=0mm|Usage=FLASHONLY|Rotation=135.000|XOffset=0mm|YOffset=0mm|HoleType=Round|Shape=Rectangle|*
%AMROTATEDRECTD20*
4,1,4,1.0629,-0.0707,0.0707,-1.0629,-1.0629,0.0707,-0.0707,1.0629,1.0629,-0.0707,0.0*
%
%ADD20ROTATEDRECTD20*%

%ADD21R,3.4032X2.0532*%
G04:AMPARAMS|DCode=22|XSize=1.6032mm|YSize=1.4032mm|CornerRadius=0mm|HoleSize=0mm|Usage=FLASHONLY|Rotation=225.000|XOffset=0mm|YOffset=0mm|HoleType=Round|Shape=Rectangle|*
%AMROTATEDRECTD22*
4,1,4,0.0707,1.0629,1.0629,0.0707,-0.0707,-1.0629,-1.0629,-0.0707,0.0707,1.0629,0.0*
%
%ADD22ROTATEDRECTD22*%

%ADD23C,1.7032*%
%ADD24R,1.7032X1.7032*%
%ADD25R,1.7032X1.7032*%
%ADD26P,2.4087X4X360.0*%
%ADD27P,2.4087X4X270.0*%
%ADD28C,0.8032*%
D16*
X81039Y251160D02*
D03*
Y233160D02*
D03*
X919038Y169280D02*
D03*
Y151280D02*
D03*
Y250360D02*
D03*
Y232360D02*
D03*
Y313440D02*
D03*
Y331440D02*
D03*
X81039Y332240D02*
D03*
Y314240D02*
D03*
Y170080D02*
D03*
Y152080D02*
D03*
Y89000D02*
D03*
Y71000D02*
D03*
X919038Y70200D02*
D03*
Y88200D02*
D03*
D17*
X465000Y420000D02*
D03*
X535000D02*
D03*
X465000Y380000D02*
D03*
X535000D02*
D03*
X883776Y51946D02*
D03*
X813776D02*
D03*
X883776Y91946D02*
D03*
X813776D02*
D03*
X883776Y141297D02*
D03*
X813776D02*
D03*
X883776Y181297D02*
D03*
X813776D02*
D03*
X813776Y270649D02*
D03*
X883776D02*
D03*
X813776Y230649D02*
D03*
X883776D02*
D03*
X813776Y360000D02*
D03*
X883776D02*
D03*
X813776Y320000D02*
D03*
X883776D02*
D03*
X186855Y320000D02*
D03*
X116855D02*
D03*
X186855Y360000D02*
D03*
X116855D02*
D03*
X186855Y230649D02*
D03*
X116855Y230649D02*
D03*
X186855Y270649D02*
D03*
X116855D02*
D03*
X186855Y141298D02*
D03*
X116855D02*
D03*
X186855Y181298D02*
D03*
X116855D02*
D03*
X186855Y51947D02*
D03*
X116855D02*
D03*
X186855Y91947D02*
D03*
X116855D02*
D03*
D18*
X434416Y237449D02*
D03*
X437951Y233913D02*
D03*
X441487Y230378D02*
D03*
X445022Y226842D02*
D03*
X448558Y223307D02*
D03*
X452094Y219771D02*
D03*
X455629Y216236D02*
D03*
X459164Y212700D02*
D03*
X462700Y209164D02*
D03*
X466236Y205629D02*
D03*
X469771Y202094D02*
D03*
X473307Y198558D02*
D03*
X476842Y195022D02*
D03*
X480378Y191487D02*
D03*
X483913Y187951D02*
D03*
X487449Y184416D02*
D03*
X565584Y262551D02*
D03*
X562049Y266087D02*
D03*
X558513Y269622D02*
D03*
X554978Y273158D02*
D03*
X551442Y276693D02*
D03*
X547906Y280229D02*
D03*
X544371Y283764D02*
D03*
X540836Y287300D02*
D03*
X537300Y290836D02*
D03*
X533764Y294371D02*
D03*
X530229Y297906D02*
D03*
X526693Y301442D02*
D03*
X523158Y304978D02*
D03*
X519622Y308513D02*
D03*
X516087Y312049D02*
D03*
X512551Y315584D02*
D03*
D19*
Y184416D02*
D03*
X516087Y187951D02*
D03*
X519622Y191487D02*
D03*
X523158Y195022D02*
D03*
X526693Y198558D02*
D03*
X530229Y202094D02*
D03*
X533764Y205629D02*
D03*
X537300Y209164D02*
D03*
X540836Y212700D02*
D03*
X544371Y216236D02*
D03*
X547906Y219771D02*
D03*
X551442Y223307D02*
D03*
X554978Y226842D02*
D03*
X558513Y230378D02*
D03*
X562049Y233913D02*
D03*
X565584Y237449D02*
D03*
X487449Y315584D02*
D03*
X483913Y312049D02*
D03*
X480378Y308513D02*
D03*
X476842Y304978D02*
D03*
X473307Y301442D02*
D03*
X469771Y297906D02*
D03*
X466236Y294371D02*
D03*
X462700Y290836D02*
D03*
X459164Y287300D02*
D03*
X455629Y283764D02*
D03*
X452094Y280229D02*
D03*
X448558Y276693D02*
D03*
X445022Y273158D02*
D03*
X441487Y269622D02*
D03*
X437951Y266087D02*
D03*
X434416Y262551D02*
D03*
D20*
X802728Y431689D02*
D03*
X790000Y418961D02*
D03*
D21*
X660750Y363000D02*
D03*
X599250D02*
D03*
X339250Y360000D02*
D03*
X400750D02*
D03*
D22*
X194436Y430162D02*
D03*
X207164Y417434D02*
D03*
D23*
X980000Y118400D02*
D03*
Y296200D02*
D03*
Y270800D02*
D03*
Y245400D02*
D03*
Y220000D02*
D03*
Y194600D02*
D03*
Y169200D02*
D03*
Y143800D02*
D03*
X509200Y74600D02*
D03*
X509200Y100000D02*
D03*
X534600Y74600D02*
D03*
Y100000D02*
D03*
X560000Y74600D02*
D03*
Y100000D02*
D03*
X585400Y74600D02*
D03*
Y100000D02*
D03*
X610800Y74600D02*
D03*
Y100000D02*
D03*
X636200Y74600D02*
D03*
Y100000D02*
D03*
X661600Y74600D02*
D03*
X661600Y100000D02*
D03*
X687000Y74600D02*
D03*
X750000Y40000D02*
D03*
X856200Y20000D02*
D03*
X881600D02*
D03*
X907000D02*
D03*
X742040Y442039D02*
D03*
X642500Y432500D02*
D03*
X617100D02*
D03*
X591700D02*
D03*
X407900D02*
D03*
X382500D02*
D03*
X357100D02*
D03*
X240000Y460000D02*
D03*
X30000Y217000D02*
D03*
Y191600D02*
D03*
Y166200D02*
D03*
Y140800D02*
D03*
Y115400D02*
D03*
X175400Y20000D02*
D03*
X150000D02*
D03*
X124600D02*
D03*
X99200D02*
D03*
X267960Y57961D02*
D03*
X465400Y100000D02*
D03*
X465400Y74600D02*
D03*
X440000Y100000D02*
D03*
Y74600D02*
D03*
X414600Y100000D02*
D03*
Y74600D02*
D03*
X389200Y100000D02*
D03*
Y74600D02*
D03*
X363800Y100000D02*
D03*
X363800Y74600D02*
D03*
X338400Y100000D02*
D03*
Y74600D02*
D03*
X313000Y100000D02*
D03*
X30000Y274600D02*
D03*
Y249200D02*
D03*
D24*
X980000Y93000D02*
D03*
X30000Y90000D02*
D03*
X30000Y300000D02*
D03*
D25*
X845000Y397901D02*
D03*
X687000Y100000D02*
D03*
X830800Y20000D02*
D03*
X667900Y432500D02*
D03*
X331700D02*
D03*
X150000Y396000D02*
D03*
X200800Y20000D02*
D03*
X313000Y74600D02*
D03*
D26*
X732040Y57961D02*
D03*
X257960Y442039D02*
D03*
D27*
X760000Y460000D02*
D03*
X250000Y40000D02*
D03*
D28*
X521998Y396000D02*
D03*
X478000D02*
D03*
M02*
