M48
;Layer_Color=9474304
;FILE_FORMAT=4:4
METRIC,LZ
;TYPE=PLATED
T1F00S00C0.3000
T2F00S00C0.9000
;TYPE=NON_PLATED
T3F00S00C0.9000
%
T01
X00069452Y00050079
X000825Y000675
X0008Y000925
X00055005Y00081043
X00071306Y00134378
X000875Y0013
X00116855Y00092026
X001475Y00127579
X00179Y0014
X00195Y001408
X00186855Y00092026
X001825Y000525
X001975Y00051946
X00202737Y00037579
X0017543Y00037657
X0016094Y000425
X002225Y0007905
X00278548Y00093538
X00279643Y00103184
X0028601Y00109666
X002875Y00135
X00296438Y001425
X00306542Y00132396
X00305Y0012
X00315Y00138625
X00355Y00119494
X003638Y001184
X00385Y001425
X004925Y0014
Y00131236
X00489999Y00115
X00543864Y0006
X00622807Y000625
X00750993Y00074678
X00736547Y00124082
X0074Y00131236
X00727499Y001225
X008125Y001408
X0083Y00141297
X008125Y00089903
X008125Y00051946
X0083
X008475Y0006
X00885Y0009055
X00919156Y00089
X00918961Y0007
X00929Y00050079
X0093038Y00130079
X008875Y00125
X00905Y0015924
X0090451Y0017008
X00919156Y00169447
X00918961Y001505
X0085Y0015
X0088Y001831
X008841Y0023155
X00918961Y002325
X00919156Y002508
X00931587Y00210079
X00935077Y002925
X00918961Y003105
Y003325
X008841Y003206
X00848704Y00351958
X008308Y0036
X008125
X008125Y0031905
X0081Y00270649
X0083
X00865315Y002575
X00815Y0023155
X008125Y0018155
X0072192Y001525
X00698918
X00687499Y001525
X006925Y00196485
X006845Y00205079
X0069Y0023
X007025Y002425
X00655592Y002492
X0064942Y00255
X00642499Y002625
X0061692Y002575
X0061Y00262551
X00622807Y002475
X00636209Y002375
X00602947Y00232579
X005821Y0023316
X00591936Y0024359
X0056656Y00243349
X00566391Y00203336
X00585358Y00215938
X0061692Y00150881
X006675Y002725
X00655592Y00295
X00656866Y00306225
X0066Y00361656
X006235Y00337579
X005825Y00331053
X00545Y00326447
X00550713Y00396106
X0058179Y00395079
X00583704Y00415174
X0079Y00418961
X0079Y00442708
X00818999Y00421176
X00761974Y00295
X00762298Y00276673
X00740322Y00276885
Y00293499
X005225Y00285786
X00512096Y002875
X00487499Y00297499
X005125Y00323289
X005092Y00340624
X00494999Y00347499
X004525Y003325
X0043903Y00338943
X00438027Y0032368
X00434416Y0039
X0043903Y00405706
X004225Y004125
X0040645Y00415079
X003775Y00415
X00383875Y00407898
X00385609Y00375
X003892Y00365
X003754Y00342636
X003525Y00337169
Y0035
X00345Y00404237
X0031Y004375
X00235Y00397901
X0025Y003825
X00207164Y00417434
X001925Y00430588
X001875Y00360106
X001825Y0032
X001975
X001625Y00335289
X001875Y0027155
X001825Y002305
X00195
X00162211Y002125
X001875Y0018155
X003125Y001875
X00332499Y00185
X003275Y00177095
X003225Y00169447
X00342499Y001725
X003384Y0016
X003317Y0015292
X00325Y001475
X00302499Y0015
X0037Y0015792
X0038Y0018
X0041Y00196712
X00412736Y00211578
X00435Y00211789
X0044Y00198287
X00431736Y00240207
X00423636Y00263715
X00410885Y00255133
X0041Y0027155
X003975Y002625
X00375Y002425
X0035Y00250908
X00333329Y002875
X00337579Y00295
X00460454Y0025591
X00479546Y00236818
X00469263Y00225
X00480378Y0021182
X00493385Y00199939
X00507499Y002025
X00516602Y002206
X00524253Y00244068
X00532096Y00269622
X0053733Y00171246
X00537623Y00151588
X0052483Y0016292
X00517759Y0015792
X00511065Y001525
X00505Y001475
X00489999Y0015
X004725Y0038425
X005275Y0038405
X00429189Y004375
X00202737Y00537579
X0017543Y00537657
X00119355Y0035905
X001175Y0027155
X00087375Y0029
X00068842Y002898
X00065396Y003105
X00064535Y002305
X00069452Y00210879
X000875Y0021
X00116855Y00181298
X00064535Y001505
X00069452Y00550079
X000825Y005675
X0008Y005925
X00055005Y00581043
X00071306Y00634378
X000875Y0063
X00064535Y006505
X00069452Y00710879
X000875Y0071
X00064535Y007305
X00068842Y007898
X00087375Y0079
X00065396Y008105
X001175Y0077155
X00119355Y0085905
X00116855Y00681298
Y00592026
X001475Y00627579
X00179Y0064
X00195Y006408
X001875Y0068155
X001825Y007305
X00195
X001875Y0077155
X001825Y0082
X001975
X001875Y00860106
X001625Y00835289
X00162211Y007125
X00186855Y00592026
X001825Y005525
X001975Y00551946
X0016094Y005425
X002225Y0057905
X00278548Y00593538
X00279643Y00603185
X0028601Y00609666
X002875Y00635
X00296438Y006425
X00302499Y0065
X00306542Y00632396
X00305Y0062
X00315Y00638625
X00325Y006475
X003317Y0065292
X003384Y0066
X00342499Y006725
X003275Y00677095
X003225Y00669447
X00332499Y00685
X003125Y006875
X0038Y0068
X0037Y0065792
X00385Y006425
X003638Y006184
X00355Y00619494
X0041Y00696712
X00412736Y00711578
X00435Y00711789
X0044Y00698287
X00431736Y00740207
X00423636Y00763715
X00410885Y00755133
X0041Y0077155
X003975Y007625
X00375Y007425
X0035Y00750908
X00333329Y007875
X00337579Y00795
X003525Y00837169
Y0085
X003754Y00842636
X003892Y00865
X00385609Y00875
X00383875Y00907898
X003775Y00915
X0040645Y00915079
X004225Y009125
X0043903Y00905706
X00434416Y0089
X004725Y0088425
X005275Y0088405
X005092Y00840624
X005125Y00823289
X00512096Y007875
X005225Y00785786
X00532096Y00769622
X00524253Y00744068
X00516602Y007206
X00507499Y007025
X00493385Y00699939
X00480378Y0071182
X00469263Y00725
X00479546Y00736818
X00460454Y0075591
X00487499Y00797499
X00494999Y00847499
X004525Y008325
X0043903Y00838943
X00438027Y0082368
X00345Y00904237
X00235Y00897901
X0025Y008825
X00207164Y00917434
X001925Y00930588
X00489999Y0065
X004925Y0064
Y00631236
X00489999Y00615
X00505Y006475
X00511065Y006525
X00517759Y0065792
X0052483Y0066292
X0053733Y00671246
X00537623Y00651589
X0061692Y00650881
X00687499Y006525
X00698918Y006525
X0072192
X00727499Y006225
X00736547Y00624082
X0074Y00631236
X00750993Y00574678
X008125Y00589903
X008125Y00551946
X0083
X008475Y0056
X00885Y0059055
X00919156Y00589
X00918961Y0057
X00929Y00550079
X0093038Y00630079
X00918961Y006505
X00919156Y00669447
X0090451Y0067008
X00905Y0065924
X0088Y006831
X008841Y0073155
X00918961Y007325
X00919156Y007508
X00931587Y00710079
X00935077Y007925
X00918961Y008105
Y008325
X008841Y008206
X00848704Y00851958
X008308Y0086
X008125
X008125Y0081905
X0081Y00770649
X0083
X00865315Y007575
X00815Y0073155
X008125Y0068155
X008125Y006408
X0083Y00641297
X0085Y0065
X008875Y00625
X006925Y00696485
X006845Y00705079
X0069Y0073
X007025Y007425
X00655592Y007492
X0064942Y00755
X00642499Y00762499
X0061692Y007575
X0061Y00762551
X00622807Y007475
X00636209Y007375
X00602947Y00732579
X005821Y0073316
X00591936Y0074359
X0056656Y00743349
X00566391Y00703336
X00585358Y00715938
X005825Y00831053
X00545Y00826447
X00550713Y00896106
X0058179Y00895079
X00583704Y00915174
X006235Y00837579
X0066Y00861656
X00656866Y00806225
X00655592Y00795
X006675Y007725
X00740322Y00776885
Y00793499
X00761974Y00795
X00762298Y00776673
X0079Y00918961
X00818999Y00921176
X00622807Y005625
X00543864Y0056
X0079Y00942708
X00429189Y009375
X0031Y009375
T02
X000992Y0002
X001246
X0003Y0009
Y001154
Y001408
X0015Y0002
X001754
X002008
X0025Y0004
X0026796Y00057961
X00313Y000746
X003384
X003638
X003892
X004146
X0044
Y001
X004654
X004654Y000746
X005092
X005092Y001
X005346
Y000746
X004146Y001
X003892
X003638
X003384
X00313
X0056Y001
X005854Y001
Y000746
X0056
X006108Y000746
Y001
X006362
Y000746
X006616
X00687
Y001
X006616Y001
X0073204Y00057961
X0075Y0004
X008308Y0002
X008562
X008816
X00907
X0098Y00093
Y001184
Y001438
Y001692
Y001946
Y0022
Y002454
Y002708
Y002962
X00845Y00397901
X008562Y0052
X008308
X008816
X00907
X0076Y0046
X0074204Y00442039
X006679Y004325
X006425
X006171
X005917
X004079
X003825
X003571
X003317
X0025796Y00442039
X0024Y0046
X002008Y0052
X001754
X0015
Y00396
X001246Y0052
X000992
X0003Y003
Y002746
Y002492
X0003Y00217
Y001916
Y001662
Y0059
Y006154
Y006408
Y006662
Y006916
Y00717
X0003Y007492
Y007746
Y008
X0015Y00896
X003317Y009325
X003571
X003825
X004079
X004146Y006
X0044
X004654
X004654Y005746
X0044
X004146
X003892
Y006
X003638
X003384
Y005746
X003638
X00313
Y006
X0026796Y00557961
X0025Y0054
X005092Y005746
X005092Y006
X005346
Y005746
X0056Y005746
X005854
Y006
X0056Y006
X006108Y006
Y005746
X006362Y005746
X006616
X00687
Y006
X006616Y006
X006362Y006
X0073204Y00557961
X0075Y0054
X00845Y00897901
X006679Y009325
X006425
X006171
X005917
X0098Y007962
Y007708
Y007454
Y0072
Y006946
Y006692
Y006438
Y006184
Y00593
X0074204Y00942039
X0076Y0096
X0024
X0025796Y00942039
T03
X00478Y00396
X00521998
Y00896
X00478
M30
