G04*
G04 #@! TF.GenerationSoftware,Altium Limited,Altium Designer,19.0.15 (446)*
G04*
G04 Layer_Color=16711935*
%FSLAX44Y44*%
%MOMM*%
G71*
G01*
G75*
%ADD19C,0.2540*%
D19*
X50000Y0D02*
X250000D01*
X300000Y50000D01*
X700000D01*
X750000Y0D01*
X950000D01*
X1000000Y50000D01*
Y225000D01*
Y450000D01*
X950000Y500000D02*
X1000000Y450000D01*
X750000Y500000D02*
X950000D01*
X700000Y450000D02*
X750000Y500000D01*
X300000Y450000D02*
X700000D01*
X250000Y500000D02*
X300000Y450000D01*
X50000Y500000D02*
X250000D01*
X0Y450000D02*
X50000Y500000D01*
X0Y50000D02*
Y450000D01*
Y50000D02*
X50000Y0D01*
Y500000D02*
X250000D01*
X300000Y550000D01*
X700000D01*
X750000Y500000D01*
X950000D01*
X1000000Y550000D01*
Y725000D01*
Y950000D01*
X950000Y1000000D02*
X1000000Y950000D01*
X750000Y1000000D02*
X950000D01*
X700000Y950000D02*
X750000Y1000000D01*
X300000Y950000D02*
X700000D01*
X250000Y1000000D02*
X300000Y950000D01*
X50000Y1000000D02*
X250000D01*
X0Y950000D02*
X50000Y1000000D01*
X0Y550000D02*
Y950000D01*
Y550000D02*
X50000Y500000D01*
M02*
