G04*
G04 #@! TF.GenerationSoftware,Altium Limited,Altium Designer,19.0.15 (446)*
G04*
G04 Layer_Color=8388736*
%FSLAX44Y44*%
%MOMM*%
G71*
G01*
G75*
%ADD46R,1.6032X1.4032*%
%ADD47R,2.2032X1.6032*%
G04:AMPARAMS|DCode=48|XSize=0.4532mm|YSize=1.7532mm|CornerRadius=0mm|HoleSize=0mm|Usage=FLASHONLY|Rotation=135.000|XOffset=0mm|YOffset=0mm|HoleType=Round|Shape=Round|*
%AMOVALD48*
21,1,1.3000,0.4532,0.0000,0.0000,225.0*
1,1,0.4532,0.4596,0.4596*
1,1,0.4532,-0.4596,-0.4596*
%
%ADD48OVALD48*%

G04:AMPARAMS|DCode=49|XSize=0.4532mm|YSize=1.7532mm|CornerRadius=0mm|HoleSize=0mm|Usage=FLASHONLY|Rotation=45.000|XOffset=0mm|YOffset=0mm|HoleType=Round|Shape=Round|*
%AMOVALD49*
21,1,1.3000,0.4532,0.0000,0.0000,135.0*
1,1,0.4532,0.4596,-0.4596*
1,1,0.4532,-0.4596,0.4596*
%
%ADD49OVALD49*%

G04:AMPARAMS|DCode=50|XSize=1.6032mm|YSize=1.4032mm|CornerRadius=0mm|HoleSize=0mm|Usage=FLASHONLY|Rotation=135.000|XOffset=0mm|YOffset=0mm|HoleType=Round|Shape=Rectangle|*
%AMROTATEDRECTD50*
4,1,4,1.0629,-0.0707,0.0707,-1.0629,-1.0629,0.0707,-0.0707,1.0629,1.0629,-0.0707,0.0*
%
%ADD50ROTATEDRECTD50*%

%ADD51R,3.4032X2.0532*%
G04:AMPARAMS|DCode=52|XSize=1.6032mm|YSize=1.4032mm|CornerRadius=0mm|HoleSize=0mm|Usage=FLASHONLY|Rotation=225.000|XOffset=0mm|YOffset=0mm|HoleType=Round|Shape=Rectangle|*
%AMROTATEDRECTD52*
4,1,4,0.0707,1.0629,1.0629,0.0707,-0.0707,-1.0629,-1.0629,-0.0707,0.0707,1.0629,0.0*
%
%ADD52ROTATEDRECTD52*%

%ADD53C,1.7032*%
%ADD54R,1.7032X1.7032*%
%ADD55R,1.7032X1.7032*%
%ADD56P,2.4087X4X360.0*%
%ADD57P,2.4087X4X270.0*%
%ADD58C,0.8032*%
D46*
X81039Y251160D02*
D03*
Y233160D02*
D03*
X919038Y169280D02*
D03*
Y151280D02*
D03*
Y250360D02*
D03*
Y232360D02*
D03*
Y313440D02*
D03*
Y331440D02*
D03*
X81039Y332240D02*
D03*
Y314240D02*
D03*
Y170080D02*
D03*
Y152080D02*
D03*
Y89000D02*
D03*
Y71000D02*
D03*
X919038Y70200D02*
D03*
Y88200D02*
D03*
X81039Y751160D02*
D03*
Y733160D02*
D03*
X919038Y669280D02*
D03*
Y651280D02*
D03*
Y750360D02*
D03*
Y732360D02*
D03*
Y813440D02*
D03*
Y831440D02*
D03*
X81039Y832240D02*
D03*
Y814240D02*
D03*
Y670080D02*
D03*
Y652080D02*
D03*
Y589000D02*
D03*
Y571000D02*
D03*
X919038Y570200D02*
D03*
Y588200D02*
D03*
D47*
X465000Y420000D02*
D03*
X535000D02*
D03*
X465000Y380000D02*
D03*
X535000D02*
D03*
X883776Y51946D02*
D03*
X813776D02*
D03*
X883776Y91946D02*
D03*
X813776D02*
D03*
X883776Y141297D02*
D03*
X813776D02*
D03*
X883776Y181297D02*
D03*
X813776D02*
D03*
X813776Y270649D02*
D03*
X883776D02*
D03*
X813776Y230649D02*
D03*
X883776D02*
D03*
X813776Y360000D02*
D03*
X883776D02*
D03*
X813776Y320000D02*
D03*
X883776D02*
D03*
X186855Y320000D02*
D03*
X116855D02*
D03*
X186855Y360000D02*
D03*
X116855D02*
D03*
X186855Y230649D02*
D03*
X116855Y230649D02*
D03*
X186855Y270649D02*
D03*
X116855D02*
D03*
X186855Y141298D02*
D03*
X116855D02*
D03*
X186855Y181298D02*
D03*
X116855D02*
D03*
X186855Y51947D02*
D03*
X116855D02*
D03*
X186855Y91947D02*
D03*
X116855D02*
D03*
X465000Y920000D02*
D03*
X535000D02*
D03*
X465000Y880000D02*
D03*
X535000D02*
D03*
X883776Y551946D02*
D03*
X813776D02*
D03*
X883776Y591946D02*
D03*
X813776D02*
D03*
X883776Y641297D02*
D03*
X813776D02*
D03*
X883776Y681297D02*
D03*
X813776D02*
D03*
X813776Y770649D02*
D03*
X883776D02*
D03*
X813776Y730649D02*
D03*
X883776D02*
D03*
X813776Y860000D02*
D03*
X883776D02*
D03*
X813776Y820000D02*
D03*
X883776D02*
D03*
X186855Y820000D02*
D03*
X116855D02*
D03*
X186855Y860000D02*
D03*
X116855D02*
D03*
X186855Y730649D02*
D03*
X116855Y730649D02*
D03*
X186855Y770649D02*
D03*
X116855D02*
D03*
X186855Y641298D02*
D03*
X116855D02*
D03*
X186855Y681298D02*
D03*
X116855D02*
D03*
X186855Y551947D02*
D03*
X116855D02*
D03*
X186855Y591947D02*
D03*
X116855D02*
D03*
D48*
X434416Y237449D02*
D03*
X437951Y233913D02*
D03*
X441487Y230378D02*
D03*
X445022Y226842D02*
D03*
X448558Y223307D02*
D03*
X452094Y219771D02*
D03*
X455629Y216236D02*
D03*
X459164Y212700D02*
D03*
X462700Y209164D02*
D03*
X466236Y205629D02*
D03*
X469771Y202094D02*
D03*
X473307Y198558D02*
D03*
X476842Y195022D02*
D03*
X480378Y191487D02*
D03*
X483913Y187951D02*
D03*
X487449Y184416D02*
D03*
X565584Y262551D02*
D03*
X562049Y266087D02*
D03*
X558513Y269622D02*
D03*
X554978Y273158D02*
D03*
X551442Y276693D02*
D03*
X547906Y280229D02*
D03*
X544371Y283764D02*
D03*
X540836Y287300D02*
D03*
X537300Y290836D02*
D03*
X533764Y294371D02*
D03*
X530229Y297906D02*
D03*
X526693Y301442D02*
D03*
X523158Y304978D02*
D03*
X519622Y308513D02*
D03*
X516087Y312049D02*
D03*
X512551Y315584D02*
D03*
X434416Y737449D02*
D03*
X437951Y733913D02*
D03*
X441487Y730378D02*
D03*
X445022Y726842D02*
D03*
X448558Y723307D02*
D03*
X452094Y719771D02*
D03*
X455629Y716236D02*
D03*
X459164Y712700D02*
D03*
X462700Y709164D02*
D03*
X466236Y705629D02*
D03*
X469771Y702094D02*
D03*
X473307Y698558D02*
D03*
X476842Y695022D02*
D03*
X480378Y691487D02*
D03*
X483913Y687951D02*
D03*
X487449Y684416D02*
D03*
X565584Y762551D02*
D03*
X562049Y766087D02*
D03*
X558513Y769622D02*
D03*
X554978Y773158D02*
D03*
X551442Y776693D02*
D03*
X547906Y780229D02*
D03*
X544371Y783764D02*
D03*
X540836Y787300D02*
D03*
X537300Y790836D02*
D03*
X533764Y794371D02*
D03*
X530229Y797906D02*
D03*
X526693Y801442D02*
D03*
X523158Y804978D02*
D03*
X519622Y808513D02*
D03*
X516087Y812049D02*
D03*
X512551Y815584D02*
D03*
D49*
Y184416D02*
D03*
X516087Y187951D02*
D03*
X519622Y191487D02*
D03*
X523158Y195022D02*
D03*
X526693Y198558D02*
D03*
X530229Y202094D02*
D03*
X533764Y205629D02*
D03*
X537300Y209164D02*
D03*
X540836Y212700D02*
D03*
X544371Y216236D02*
D03*
X547906Y219771D02*
D03*
X551442Y223307D02*
D03*
X554978Y226842D02*
D03*
X558513Y230378D02*
D03*
X562049Y233913D02*
D03*
X565584Y237449D02*
D03*
X487449Y315584D02*
D03*
X483913Y312049D02*
D03*
X480378Y308513D02*
D03*
X476842Y304978D02*
D03*
X473307Y301442D02*
D03*
X469771Y297906D02*
D03*
X466236Y294371D02*
D03*
X462700Y290836D02*
D03*
X459164Y287300D02*
D03*
X455629Y283764D02*
D03*
X452094Y280229D02*
D03*
X448558Y276693D02*
D03*
X445022Y273158D02*
D03*
X441487Y269622D02*
D03*
X437951Y266087D02*
D03*
X434416Y262551D02*
D03*
X512551Y684416D02*
D03*
X516087Y687951D02*
D03*
X519622Y691487D02*
D03*
X523158Y695022D02*
D03*
X526693Y698558D02*
D03*
X530229Y702094D02*
D03*
X533764Y705629D02*
D03*
X537300Y709164D02*
D03*
X540836Y712700D02*
D03*
X544371Y716236D02*
D03*
X547906Y719771D02*
D03*
X551442Y723307D02*
D03*
X554978Y726842D02*
D03*
X558513Y730378D02*
D03*
X562049Y733913D02*
D03*
X565584Y737449D02*
D03*
X487449Y815584D02*
D03*
X483913Y812049D02*
D03*
X480378Y808513D02*
D03*
X476842Y804978D02*
D03*
X473307Y801442D02*
D03*
X469771Y797906D02*
D03*
X466236Y794371D02*
D03*
X462700Y790836D02*
D03*
X459164Y787300D02*
D03*
X455629Y783764D02*
D03*
X452094Y780229D02*
D03*
X448558Y776693D02*
D03*
X445022Y773158D02*
D03*
X441487Y769622D02*
D03*
X437951Y766087D02*
D03*
X434416Y762551D02*
D03*
D50*
X802728Y431689D02*
D03*
X790000Y418961D02*
D03*
X802728Y931689D02*
D03*
X790000Y918961D02*
D03*
D51*
X660750Y363000D02*
D03*
X599250D02*
D03*
X339250Y360000D02*
D03*
X400750D02*
D03*
X660750Y863000D02*
D03*
X599250D02*
D03*
X339250Y860000D02*
D03*
X400750D02*
D03*
D52*
X194436Y430162D02*
D03*
X207164Y417434D02*
D03*
X194436Y930162D02*
D03*
X207164Y917434D02*
D03*
D53*
X980000Y118400D02*
D03*
Y296200D02*
D03*
Y270800D02*
D03*
Y245400D02*
D03*
Y220000D02*
D03*
Y194600D02*
D03*
Y169200D02*
D03*
Y143800D02*
D03*
X509200Y74600D02*
D03*
X509200Y100000D02*
D03*
X534600Y74600D02*
D03*
Y100000D02*
D03*
X560000Y74600D02*
D03*
Y100000D02*
D03*
X585400Y74600D02*
D03*
Y100000D02*
D03*
X610800Y74600D02*
D03*
Y100000D02*
D03*
X636200Y74600D02*
D03*
Y100000D02*
D03*
X661600Y74600D02*
D03*
X661600Y100000D02*
D03*
X687000Y74600D02*
D03*
X750000Y40000D02*
D03*
X856200Y20000D02*
D03*
X881600D02*
D03*
X907000D02*
D03*
X742040Y442039D02*
D03*
X642500Y432500D02*
D03*
X617100D02*
D03*
X591700D02*
D03*
X407900D02*
D03*
X382500D02*
D03*
X357100D02*
D03*
X240000Y460000D02*
D03*
X30000Y217000D02*
D03*
Y191600D02*
D03*
Y166200D02*
D03*
Y140800D02*
D03*
Y115400D02*
D03*
X175400Y20000D02*
D03*
X150000D02*
D03*
X124600D02*
D03*
X99200D02*
D03*
X267960Y57961D02*
D03*
X465400Y100000D02*
D03*
X465400Y74600D02*
D03*
X440000Y100000D02*
D03*
Y74600D02*
D03*
X414600Y100000D02*
D03*
Y74600D02*
D03*
X389200Y100000D02*
D03*
Y74600D02*
D03*
X363800Y100000D02*
D03*
X363800Y74600D02*
D03*
X338400Y100000D02*
D03*
Y74600D02*
D03*
X313000Y100000D02*
D03*
X30000Y274600D02*
D03*
Y249200D02*
D03*
X980000Y618400D02*
D03*
Y796200D02*
D03*
Y770800D02*
D03*
Y745400D02*
D03*
Y720000D02*
D03*
Y694600D02*
D03*
Y669200D02*
D03*
Y643800D02*
D03*
X509200Y574600D02*
D03*
X509200Y600000D02*
D03*
X534600Y574600D02*
D03*
Y600000D02*
D03*
X560000Y574600D02*
D03*
Y600000D02*
D03*
X585400Y574600D02*
D03*
Y600000D02*
D03*
X610800Y574600D02*
D03*
Y600000D02*
D03*
X636200Y574600D02*
D03*
Y600000D02*
D03*
X661600Y574600D02*
D03*
X661600Y600000D02*
D03*
X687000Y574600D02*
D03*
X750000Y540000D02*
D03*
X856200Y520000D02*
D03*
X881600D02*
D03*
X907000D02*
D03*
X742040Y942039D02*
D03*
X642500Y932500D02*
D03*
X617100D02*
D03*
X591700D02*
D03*
X407900D02*
D03*
X382500D02*
D03*
X357100D02*
D03*
X240000Y960000D02*
D03*
X30000Y717000D02*
D03*
Y691600D02*
D03*
Y666200D02*
D03*
Y640800D02*
D03*
Y615400D02*
D03*
X175400Y520000D02*
D03*
X150000D02*
D03*
X124600D02*
D03*
X99200D02*
D03*
X267960Y557961D02*
D03*
X465400Y600000D02*
D03*
X465400Y574600D02*
D03*
X440000Y600000D02*
D03*
Y574600D02*
D03*
X414600Y600000D02*
D03*
Y574600D02*
D03*
X389200Y600000D02*
D03*
Y574600D02*
D03*
X363800Y600000D02*
D03*
X363800Y574600D02*
D03*
X338400Y600000D02*
D03*
Y574600D02*
D03*
X313000Y600000D02*
D03*
X30000Y774600D02*
D03*
Y749200D02*
D03*
D54*
X980000Y93000D02*
D03*
X30000Y90000D02*
D03*
X30000Y300000D02*
D03*
X980000Y593000D02*
D03*
X30000Y590000D02*
D03*
X30000Y800000D02*
D03*
D55*
X845000Y397901D02*
D03*
X687000Y100000D02*
D03*
X830800Y20000D02*
D03*
X667900Y432500D02*
D03*
X331700D02*
D03*
X150000Y396000D02*
D03*
X200800Y20000D02*
D03*
X313000Y74600D02*
D03*
X845000Y897901D02*
D03*
X687000Y600000D02*
D03*
X830800Y520000D02*
D03*
X667900Y932500D02*
D03*
X331700D02*
D03*
X150000Y896000D02*
D03*
X200800Y520000D02*
D03*
X313000Y574600D02*
D03*
D56*
X732040Y57961D02*
D03*
X257960Y442039D02*
D03*
X732040Y557961D02*
D03*
X257960Y942039D02*
D03*
D57*
X760000Y460000D02*
D03*
X250000Y40000D02*
D03*
X760000Y960000D02*
D03*
X250000Y540000D02*
D03*
D58*
X521998Y396000D02*
D03*
X478000D02*
D03*
X521998Y896000D02*
D03*
X478000D02*
D03*
M02*
